<svg width="16" height="15" fill="none" xmlns="http://www.w3.org/2000/svg"><path d="M14.728 0H1.273A1.26 1.26 0 0 0 0 1.25v12.5C0 14.44.57 15 1.273 15h13.455C15.43 15 16 14.44 16 13.751V1.249C16 .56 15.429 0 14.728 0Zm-3.973 4.453c-.331-.19-.593-.34-.923-.34-.323 0-.599.08-.74.213-.14.132-.21.388-.21.767v.56h1.725l-.374 1.558H8.881v5.178H6.714V7.21H5.702V5.653h1.013v-.595c0-.626.076-1 .227-1.31a1.87 1.87 0 0 1 .846-.846c.405-.194 1.003-.291 1.623-.291.635 0 1.13.208 1.739.375l-.395 1.467Z" fill="#F9F9F9"/></svg>