<?xml version="1.0" encoding="UTF-8"?>

<!DOCTYPE svg PUBLIC "-//W3C//DTD SVG 1.1//EN" "http://www.w3.org/Graphics/SVG/1.1/DTD/svg11.dtd">

<!-- Creator: CorelDRAW 2020 (64 Bit Versão de avaliação) -->
<svg xmlns="http://www.w3.org/2000/svg" xml:space="preserve" width="780mm" height="150mm" version="1.1" style="shape-rendering:geometricPrecision; text-rendering:geometricPrecision; image-rendering:optimizeQuality; fill-rule:evenodd; clip-rule:evenodd"
viewBox="0 0 78000 15000"
 xmlns:xlink="http://www.w3.org/1999/xlink"
 xmlns:xodm="http://www.corel.com/coreldraw/odm/2003">
 <defs>
  <style type="text/css">
   <![CDATA[
    .fil0 {fill:#0733AD}
    .fil1 {fill:#F9F9F9;fill-rule:nonzero}
    .fil2 {fill:#FF1049;fill-rule:nonzero}
   ]]>
  </style>
 </defs>
 <g id="Camada_x0020_1">
  <metadata id="CorelCorpID_0Corel-Layer"/>
  <rect class="fil0" x="-5.93" y="1.47" width="78000" height="15000"/>
  <g id="_1254743470816">
   <path class="fil1" d="M44232.53 5047.43l-785.5 5590.1 -525.9 0 785.49 -5590.1 525.91 0zm1864.91 0l-64.51 468.62 -4255.47 0 66.57 -468.62 4253.41 0zm1933.04 -9.03c271.21,0 542.16,0 815.43,0 273.27,0 541.9,4.65 810.79,11.35 266.3,9.29 525.9,20.65 780.85,36.91l-73.54 413.39 -2259.99 0c-199.73,0 -351.46,48.25 -454.68,144.51 -103.47,98.83 -167.73,248.24 -193.02,447.97l-486.68 3522.87c-27.61,183.73 0,323.85 80.26,420.36 80.51,98.83 215.98,147.09 406.42,147.09l2243.99 0 -9.29 413.39c-247.98,16 -500.61,27.61 -760.21,32 -259.6,6.97 -518.94,11.61 -778.53,13.93 -259.6,2.33 -514.55,4.65 -769.24,4.65 -351.46,0 -608.74,-94.19 -771.83,-280.24 -165.4,-186.05 -227.34,-434.04 -183.73,-741.89l519.2 -3679.25c36.64,-275.6 146.83,-495.97 330.56,-661.38 183.73,-163.08 434.03,-245.66 753.24,-245.66zm-1150.64 2422.81l2884.72 0 -57.54 413.4 -2891.43 9.29 64.25 -422.69zm5236.32 -2413.78l-631.71 4567.97c-25.28,172.38 0,310.17 78.19,413.39 77.93,103.48 213.41,154.06 408.75,154.06l2089.93 0 -16 413.39c-360.75,20.65 -728.21,34.32 -1097.99,41.29 -369.53,6.97 -736.99,9.29 -1097.74,9.29 -199.73,0 -374.17,-41.55 -523.58,-126.44 -149.15,-84.9 -254.95,-204.38 -319.2,-360.5 -64.26,-156.12 -80.51,-342.17 -48.26,-560.48l624.74 -4551.97 532.87 0zm4564.61 -9.03c271.21,0 542.16,0 815.43,0 273.28,0 541.9,4.65 810.79,11.35 266.31,9.29 525.9,20.65 780.85,36.91l-73.54 413.39 -2259.99 0c-199.73,0 -351.46,48.25 -454.68,144.51 -103.47,98.83 -167.73,248.24 -193.02,447.97l-486.68 3522.87c-27.61,183.73 0,323.85 80.26,420.36 80.51,98.83 215.98,147.09 406.42,147.09l2243.99 0 -9.29 413.39c-247.98,16 -500.61,27.61 -760.21,32 -259.6,6.97 -518.93,11.61 -778.53,13.93 -259.6,2.33 -514.55,4.65 -769.24,4.65 -351.46,0 -608.74,-94.19 -771.82,-280.24 -165.41,-186.05 -227.35,-434.04 -183.74,-741.89l519.2 -3679.25c36.64,-275.6 146.83,-495.97 330.56,-661.38 183.73,-163.08 434.03,-245.66 753.24,-245.66zm-1150.64 2422.81l2884.72 0 -57.54 413.4 -2891.43 9.29 64.25 -422.69zm6569.91 -2512.35c231.73,0 431.71,4.38 603.83,16 170.06,11.35 321.53,29.93 457.01,50.57 135.47,20.65 275.59,52.65 420.36,96.51l-96.51 397.14c-151.48,-20.64 -293.92,-38.96 -429.4,-52.64 -135.47,-13.94 -275.59,-22.97 -425,-29.93 -149.15,-4.65 -325.92,-6.97 -530.29,-6.97 -307.85,0 -569.77,41.29 -785.5,121.8 -218.31,80.25 -402.04,213.66 -555.84,397.39 -153.79,183.73 -282.56,431.72 -381.13,743.95 -98.83,314.56 -179.35,707.31 -238.95,1182.9 -84.9,599.44 -105.55,1074.77 -59.61,1421.58 43.61,349.14 169.79,597.13 378.81,746.28 209.02,149.41 507.58,225.02 895.69,231.98 346.81,0 636.08,-9.03 872.71,-25.29 234.31,-15.99 463.98,-38.96 691.32,-73.54l41.28 397.4c-238.69,59.86 -477.64,103.47 -718.92,131.08 -241.02,25.03 -534.93,38.97 -886.39,38.97 -530.55,0 -939.3,-98.83 -1230.89,-296.24 -291.86,-195.34 -479.97,-509.9 -562.81,-939.3 -84.89,-429.65 -77.93,-989.87 20.65,-1681.18 75.86,-528.22 177.02,-976.2 303.2,-1343.66 126.45,-367.46 287.21,-663.7 482.3,-888.71 195.34,-222.7 434.03,-385.79 716.6,-486.94 282.56,-98.83 622.41,-149.15 1017.48,-149.15zm4446.17 -6.97c511.97,0 916.33,94.19 1212.57,282.56 293.91,190.44 484.61,498.29 574.15,923.04 89.55,427.33 82.58,999.16 -20.64,1718.09 -71.22,534.93 -167.73,987.55 -294.17,1357.33 -126.19,369.52 -286.95,666.02 -482.3,886.39 -195.08,222.7 -434.03,383.46 -720.98,482.3 -287.21,101.15 -624.74,151.47 -1012.84,151.47 -512.23,0 -918.65,-93.93 -1219.54,-279.98 -300.88,-186.05 -495.97,-493.91 -587.83,-920.98 -91.87,-425 -89.54,-1001.48 9.03,-1724.79 75.87,-528.22 174.7,-976.2 298.56,-1341.33 124.12,-365.14 284.89,-659.06 482.29,-886.4 197.67,-227.34 441.01,-390.43 730.28,-493.9 287.21,-103.22 631.7,-153.8 1031.42,-153.8zm-32.26 477.65c-411.07,0 -744.21,75.86 -999.16,227.34 -257.02,151.73 -459.33,404.36 -603.83,760.21 -147.09,356.1 -264.24,842.78 -349.14,1458.49 -84.9,599.44 -103.48,1074.77 -55.22,1421.58 48.25,349.14 177.02,599.45 388.1,750.92 209.02,151.48 512.23,227.34 907.3,227.34 411.07,0 741.89,-77.93 996.84,-231.98 252.63,-153.8 457,-408.75 610.8,-764.6 153.79,-356.1 270.95,-840.72 351.46,-1451.52 91.86,-608.73 114.83,-1088.7 66.58,-1437.84 -48.26,-346.82 -179.09,-594.8 -388.11,-741.63 -211.34,-144.77 -519.19,-218.31 -925.62,-218.31zm8760.48 -372.11c75.61,0 130.83,22.97 169.8,68.9 39.22,45.93 55.22,105.8 48.25,181.41l-518.93 5339.79 -535.2 0 519.2 -5144.45 -170.06 0 -2064.64 4391.21c-27.61,59.61 -59.87,103.22 -96.51,128.5 -38.97,27.62 -89.54,41.29 -156.12,41.29l-535.19 0c-64.26,0 -114.83,-18.32 -151.48,-52.64 -39.22,-34.58 -66.57,-82.83 -82.83,-142.44l-858.78 -4365.92 -177.02 0 -932.33 5144.45 -525.9 0 978.26 -5362.76c16.25,-75.61 45.93,-133.15 87.47,-172.12 38.97,-36.64 93.93,-55.22 165.16,-55.22l622.41 0c59.86,0 108.12,18.58 147.08,52.9 38.97,34.58 59.61,82.58 64.26,140.12l737.24 3647c27.61,130.83 50.58,257.27 68.9,383.46 18.32,126.44 38.97,252.63 61.93,379.07l177.02 0c52.65,-130.83 110.19,-259.6 169.8,-390.43 59.87,-128.51 117.15,-252.63 170.05,-372.1l1727.12 -3663c32,-64.51 66.58,-108.12 105.54,-133.41 36.64,-25.03 87.22,-36.64 153.8,-36.64l631.7 -6.97z"/>
   <path class="fil1" d="M14482.15 4904.22c306.82,0 575.45,59.09 807.44,179.34 232.24,120.25 406.17,296.75 521.77,532.61 116.38,235.6 148.38,529.77 95.48,881.23l-583.45 4140.13 -2041.93 0 494.42 -3489.33c29.16,-202.05 18.06,-342.43 -33.81,-421.39 -52.64,-77.41 -165.66,-109.41 -336.75,-94.7 -187.6,0 -393.27,55.48 -617.25,168.24 -224.76,112 -493.39,294.95 -808.47,549.9l-302.94 -909.36c404.1,-477.9 854.65,-853.88 1351.65,-1127.15 498.03,-273.02 982.39,-409.52 1453.84,-409.52zm-2513.38 156.63l33.8 1480.94 179.34 145.8 -549.9 3949.94 -2041.93 0 774.66 -5576.68 1604.03 0z"/>
   <path class="fil1" d="M22758.79 2783.58l-1099.54 7854.21 -1615.9 0 -33.8 -1447.4 -190.19 -111.99 526.94 -3815.24 100.38 -179.34c0,-187.35 6.19,-375.98 17.29,-567.19 11.61,-190.96 31.74,-390.43 61.67,-599.71l202.31 -1133.34 2030.84 0zm-4107.35 2120.89c569,0 1104.19,39.23 1604.8,117.42 501.65,78.44 897.75,204.11 1189.86,375.97l-224.76 796.6c-299.59,0 -573.64,-1.81 -824.72,-5.42 -250.57,-3.62 -539.84,-6.45 -869.62,-6.45 -209.28,0 -385.79,19.09 -526.94,56.51 -141.92,37.42 -256.76,109.15 -342.43,213.15 -86.44,105.54 -157.41,254.69 -212.89,448.74 -56.51,194.83 -106.57,453.39 -151.99,774.66 -37.42,329.53 -61.93,598.93 -72.77,807.44 -11.09,210.3 17.29,361.52 83.61,455.19 68.38,93.67 187.6,140.12 359.72,140.12 269.4,-15.48 521.51,-97.28 757.37,-246.69 235.6,-150.19 473.26,-329.53 711.7,-538.81l382.42 852.08c-105.54,127.47 -244.88,283.08 -421.39,466.03 -175.73,183.99 -381.39,363.34 -616.48,538.81 -235.59,175.73 -492.35,324.11 -769.24,443.32 -276.62,119.48 -571.57,179.35 -885.62,179.35 -441.52,0 -797.37,-108.12 -1067.03,-325.92 -269.4,-216.5 -447.71,-551.45 -538.8,-1004.06 -89.29,-452.36 -89.29,-1029.61 0,-1733.31 75.61,-567.97 187.6,-1035.81 337.78,-1402.75 149.16,-365.91 326.69,-652.6 532.61,-858.53 205.67,-205.66 440.49,-347.59 706.28,-426.03 265.79,-78.19 551.71,-117.42 858.53,-117.42z"/>
   <path class="fil1" d="M26753.89 5083.82l1997.3 156.37 -763.57 5397.6 -1570.48 0 0 -1233.73 -258.56 -168.25 595.31 -4151.99zm1077.1 -3030.52l672.73 1425.46 -2827.44 1144.44 -482.55 -841.24 2637.26 -1728.66zm-1773.31 2851.17c194.83,0 420.62,10.84 678.92,32.78 258.57,22.7 518.16,50.83 780.34,84.64 261.15,33.54 502.42,69.15 723.57,106.31 220.37,37.42 391.46,74.84 510.68,111.99l-1503.65 1055.16c-239.47,-7.22 -463.46,-12.64 -673.76,-17.29 -209.28,-3.61 -433.27,-5.42 -672.74,-5.42 -179.34,0 -336.75,17.29 -471.45,50.84 -134.96,32.77 -248.76,97.54 -342.43,190.44 -93.67,93.67 -175.73,234.82 -246.69,421.39 -70.97,186.57 -129.29,433.27 -173.93,740.08 -60.12,419.59 -94.7,739.31 -106.31,959.43 -11.87,221.4 16.25,368.75 83.6,443.32 67.35,74.84 183.99,112 347.85,112 171.86,-14.45 355.85,-87.22 549.64,-218.31 194.83,-131.09 383.46,-305.01 567.19,-521.78 182.96,-217.53 349.66,-455.97 498.81,-718.14l337.01 594.54c-126.7,493.39 -321.53,920.2 -583.7,1278.89 -261.15,358.68 -575.19,636.34 -942.14,830.14 -366.68,194.82 -781.88,306.82 -1245.34,337.01 -516.09,29.93 -905.75,-71.22 -1166.89,-303.21 -262.18,-231.21 -420.62,-580.86 -477.13,-1048.71 -56.51,-467.84 -35.61,-1037.87 61.93,-1711.37 97.28,-651.06 242.05,-1165.35 436.88,-1543.13 194.82,-377.78 437.9,-656.22 729.24,-835.56 292.11,-179.34 630.93,-294.95 1015.94,-347.85 386.04,-52.9 813.88,-78.19 1284.56,-78.19z"/>
   <path class="fil1" d="M31892.41 4904.22c449.77,0 884.84,17.28 1308.04,50.06 421.65,33.54 801.24,76.38 1137.99,129.28 336.76,52.64 598.93,104.77 785.76,157.41l-1503.9 1054.13c-239.47,-7.23 -465.26,-12.65 -679.19,-16.26 -213.14,-4.65 -442.55,-6.45 -689.24,-6.45 -224.76,0 -407.72,22.71 -549.65,67.35 -142.95,45.67 -256.75,118.44 -342.43,219.34 -86.44,101.15 -155.6,243.08 -207.47,427.07 -52.9,182.95 -101.15,412.36 -146.57,688.99 -74.57,419.84 -111.99,741.11 -111.99,965.1 0,224.76 37.42,376.75 111.99,455.19 74.58,78.19 191.22,110.19 348.63,94.71 178.56,-21.94 364.1,-96.51 555.32,-223.99 190.18,-127.47 379.58,-297.79 566.15,-510.68 187.6,-213.14 355.08,-454.42 505.26,-723.82l336.75 583.45c-127.21,486.16 -325.65,903.16 -595.31,1251.79 -269.41,346.81 -588.87,616.22 -959.43,807.43 -369.52,190.44 -783.69,293.14 -1239.92,308.63 -508.87,21.93 -895.68,-81.03 -1160.7,-308.63 -265.79,-228.37 -430.42,-567.96 -494.16,-1021.35 -63.74,-452.36 -42.84,-1000.46 61.93,-1643 97.29,-651.83 233.02,-1165.34 409.52,-1544.16 175.73,-376.75 385.01,-655.44 628.09,-835.56 243.08,-179.34 525.39,-294.95 847.69,-347.85 321.27,-52.64 679.96,-78.18 1076.84,-78.18zm1245.34 179.34l1998.06 157.41 -650.79 4589.13c-90.06,650.79 -240.25,1181.6 -449.78,1592.93 -208.25,411.58 -469.65,725.63 -779.05,943.16 -311.46,216.76 -656.47,365.92 -1038.9,448.75 -381.4,82.06 -784.73,127.47 -1211.54,134.7 -134.7,0 -342.43,-7.23 -622.67,-22.71 -280.5,-15.48 -578.03,-46.45 -892.07,-95.48 -314.04,-48.25 -594.54,-124.89 -841.24,-229.4l112 -1122.51 365.13 0 448.75 0 678.15 0c531.58,-7.23 987.81,-74.58 1369.98,-202.05 380.62,-127.48 650.02,-355.85 807.43,-683.57 111.99,-210.31 188.63,-421.65 230.44,-634.54 41.03,-213.92 113.8,-413.39 218.56,-601l-347.84 -134.7 605.38 -4140.12z"/>
   <path class="fil1" d="M37643.01 2547.98c216.5,0 374.17,52.64 471.45,156.38 97.29,104.76 134.7,265.78 112,483.58l-78.19 593.51c-44.64,374.94 -269.66,561.51 -673.77,561.51l-807.43 0c-434.29,0 -624.48,-212.89 -572.61,-639.96l79.22 -594.28c36.39,-374.17 257.53,-560.74 661.64,-560.74l807.69 0zm292.11 2513.39l-774.66 5576.67 -2031.1 0 774.92 -5576.67 2030.84 0z"/>
   <path class="fil1" d="M41006.41 2783.58l-852.85 5968.91c-30.19,172.12 -11.1,288.75 56.25,347.85 67.35,60.12 209.54,90.05 426.04,90.05l471.71 0 112 1357.34c-112,52.9 -262.18,95.48 -449.01,129.28 -187.34,33.55 -374.17,60.13 -560.74,78.19 -187.34,19.09 -341.39,28.38 -459.58,28.38 -577.25,0 -1016.97,-140.37 -1319.14,-420.61 -303.21,-280.5 -424.23,-663.7 -365.14,-1150.64l909.62 -6428.75 2030.84 0z"/>
   <path class="fil1" d="M5822.06 9072.73l-28.39 7.22c-21.67,6.45 -44.38,12.9 -66.32,17.29 -118.44,26.58 -224.76,39.22 -323.07,39.22 -288.76,0 -456.23,-114.83 -546.29,-211.34 -213.15,-227.34 -191.99,-537.77 -181.15,-705.5l1.81 -24.52c2.58,-45.41 6.45,-89.28 10.06,-131.09 4.39,-316.62 44.64,-725.37 126.44,-1228.82 46.45,-309.66 93.68,-571.83 140.12,-815.69 65.55,-300.37 122.06,-543.45 187.61,-750.15 122.05,-355.84 271.2,-608.99 477.9,-740.08 196.63,-132.12 459.84,-206.69 787.56,-206.69 327.73,0 562.55,65.54 730.8,196.63 159.47,122.05 244.11,356.88 262.17,693.63 10.07,141.15 10.07,318.69 -9.03,516.1 -18.06,262.17 -46.45,580.86 -102.7,946.78 -11.1,71.99 -22.97,142.18 -33.81,211.34 -4.64,28.12 19.1,53.67 47.23,50.83l2125.8 -149.15c0,0 57.28,-3.61 73.8,-5.42 2.58,-17.29 6.19,-25.54 8,-42.83 131.09,-1002.26 113.02,-1780.79 -55.48,-2352.37 0,-9.03 -10.07,-28.13 -10.07,-37.42 -177.53,-590.67 -515.06,-1012.32 -1021.35,-1265.21 -506.03,-244.11 -1162.51,-365.91 -1978.2,-365.91 -599.7,0 -1115.02,56.25 -1555.77,187.34 -431.46,122.06 -796.34,327.72 -1096.96,628.09 -300.37,290.56 -552.48,702.93 -740.08,1209.99 -188.38,515.32 -346.82,1161.47 -459.59,1930.72 -141.15,1058.77 -131.09,1884.52 28.13,2483.45 168.5,590.93 497,1013.36 984.19,1265.47 497.01,243.85 1171.54,365.91 2015.36,365.91 599.96,0 1125.09,-56.51 1565.84,-178.57 439.71,-121.02 815.69,-327.72 1115.02,-618.02 309.66,-290.31 553.52,-693.64 750.15,-1208.96 87.48,-229.4 164.89,-486.94 234.05,-769.24 -765.63,247.73 -2692.73,865.75 -3463.78,1056.97z"/>
   <path class="fil2" d="M5659.23 8786.81c28.39,-6.2 57.54,-15.49 86.7,-22.71 951.17,-235.86 3758.73,-1153.48 3758.73,-1153.48 287.47,-89.02 246.7,-505.25 -46.44,-505.25l-6.46 0 -3860.65 272.24c-401.53,54.7 -548.87,87.48 -595.32,837.62 -11.87,193.8 -60.13,603.58 407.71,603.58 72,0 156.64,-10.07 255.73,-32z"/>
  </g>
 </g>
</svg>
