<?xml version="1.0" encoding="UTF-8"?>
<!DOCTYPE svg PUBLIC "-//W3C//DTD SVG 1.1//EN" "http://www.w3.org/Graphics/SVG/1.1/DTD/svg11.dtd">
<!-- Creator: CorelDRAW 2020 (64 Bit Versão de avaliação) -->
<svg xmlns="http://www.w3.org/2000/svg" xml:space="preserve" width="150mm" height="150mm" version="1.1" style="shape-rendering:geometricPrecision; text-rendering:geometricPrecision; image-rendering:optimizeQuality; fill-rule:evenodd; clip-rule:evenodd"
viewBox="0 0 15000 15000"
 xmlns:xlink="http://www.w3.org/1999/xlink"
 xmlns:xodm="http://www.corel.com/coreldraw/odm/2003">
 <defs>
  <style type="text/css">
   <![CDATA[
    .fil0 {fill:#F9F9F9}
    .fil2 {fill:#0733AD;fill-rule:nonzero}
    .fil1 {fill:#FF1049;fill-rule:nonzero}
   ]]>
  </style>
 </defs>
 <g id="Camada_x0020_1">
  <metadata id="CorelCorpID_0Corel-Layer"/>
  <rect class="fil0" x="-1.47" y="1.47" width="15000" height="15000"/>
  <path class="fil1" d="M7255.57 9894.08c1131.53,-280.44 4470.99,-1372.02 4470.99,-1372.02 342.48,-105.6 292.98,-601.13 -54.84,-601.13l-8.22 0 -4592.07 323.82c-476.87,65.45 -652.37,104.39 -707.81,996.11 -14.16,230.7 -71.58,717.53 485.16,717.53 147.05,0 267.35,-29.94 406.79,-64.31z"/>
  <path class="fil2" d="M7107.19 4856.33c454.92,-303.12 1364.09,-354.9 1806.11,-11.22 531.36,406.13 267.78,1985.98 178.44,2564.32 -12.9,86.16 -26.46,169.56 -39.54,251.22 -5.94,34.08 22.02,63.96 56.28,61.62l2616.58 -184.38c7.68,-59.1 18.06,-118.38 25.44,-178.32 180.9,-1463.45 231.66,-3450.52 -1309.61,-4220.31 -1094.57,-527.1 -3036.22,-559.8 -4203.45,-211.86 -1986.77,560.93 -2467.18,2673.82 -2731.72,4482.03 -167.22,1259.81 -156,2241.11 33.66,2954.62 200.64,702.72 590.94,1204.37 1170.71,1505.39 590.76,289.98 1393.61,434.76 2397.1,434.76 713.52,0 1337.93,-66.9 1862.03,-211.92 1163.33,-321.36 1798.67,-1074.29 2218.67,-2173.96 104.09,-272.34 196.49,-577.44 278.51,-912.12 -907.97,294 -3206.25,1030.49 -4120.05,1256.99 -166.38,43.14 -324.9,76.2 -497.57,76.2 -762.72,0 -874.8,-500.57 -874.8,-910.85 0,-936.48 305.88,-4046.14 1133.21,-4572.21z"/>
 </g>
</svg>
