<?xml version="1.0" encoding="UTF-8"?>
<!DOCTYPE svg PUBLIC "-//W3C//DTD SVG 1.1//EN" "http://www.w3.org/Graphics/SVG/1.1/DTD/svg11.dtd">
<!-- Creator: CorelDRAW 2020 (64 Bit Versão de avaliação) -->
<svg xmlns="http://www.w3.org/2000/svg" xml:space="preserve" width="150mm" height="150mm" version="1.1" style="shape-rendering:geometricPrecision; text-rendering:geometricPrecision; image-rendering:optimizeQuality; fill-rule:evenodd; clip-rule:evenodd"
viewBox="0 0 15000 15000"
 xmlns:xlink="http://www.w3.org/1999/xlink"
 xmlns:xodm="http://www.corel.com/coreldraw/odm/2003">
 <defs>
  <style type="text/css">
   <![CDATA[
    .fil0 {fill:#0733AD}
    .fil1 {fill:#F9F9F9;fill-rule:nonzero}
    .fil2 {fill:#FF1049;fill-rule:nonzero}
   ]]>
  </style>
 </defs>
 <g id="Camada_x0020_1">
  <metadata id="CorelCorpID_0Corel-Layer"/>
  <rect class="fil0" x="-1.47" y="1.47" width="15000" height="15000"/>
  <path class="fil1" d="M7175.85 10219.59l-33.01 8.76c-26.27,7.34 -52.36,14.44 -78.03,20.06 -139.39,30.88 -263.81,45.73 -379.82,45.73 -337.93,0 -534.53,-134.65 -640.13,-247.53 -249.43,-266.76 -225.23,-631.38 -212.04,-827.14l1.84 -28.82c3.37,-53.83 7.75,-104.53 12.36,-154.23 4.79,-371.06 51.71,-850.51 147.31,-1441.53 54.91,-362.72 109.81,-670.6 164.89,-956.53 77.03,-351.66 142.76,-637.41 219.96,-879.5 142.76,-417.86 318.71,-714.43 560.62,-868.43 230.85,-153.82 538.66,-241.91 923.51,-241.91 384.91,0 659.54,77.02 857.37,230.84 187.01,142.94 285.75,417.8 307.88,813.77 11.06,164.89 11.06,373.79 -11.06,604.4 -21.89,308.05 -54.67,681.84 -120.87,1110.52 -12.72,84.78 -26.09,167.02 -38.99,247.54 -5.86,33.6 21.71,63.06 55.49,60.76l2493.02 -175.95c0,0 66.79,-3.73 87.03,-5.86 2.72,-20.65 6.68,-30.23 8.99,-49.64 154.05,-1176.31 131.93,-2088.76 -65.97,-2759.36 0,-11.06 -11.06,-32.95 -11.06,-44.01 -208.66,-692.73 -604.4,-1187.38 -1198.2,-1484.13 -593.75,-285.99 -1363.26,-428.92 -2319.79,-428.92 -703.55,0 -1308.36,66.14 -1824.96,219.96 -505.66,142.99 -934.58,384.85 -1286.23,736.56 -351.9,340.83 -648.71,824.6 -868.44,1418.17 -220.02,604.81 -407.03,1363.26 -538.9,2264.88 -164.89,1242.28 -153.82,2209.87 33.19,2913.42 197.83,692.67 582.68,1187.32 1154.36,1484.31 582.51,285.75 1374.15,428.68 2363.63,428.68 703.55,0 1319.24,-65.9 1836.02,-208.9 516.78,-142.99 956.53,-384.66 1308.36,-725.67 362.78,-340.83 648.47,-813.53 879.32,-1418.17 102.88,-269.06 194.11,-570.43 275.1,-901.44 -898.07,290.54 -3158.64,1015.15 -4062.75,1239.31z"/>
  <path class="fil2" d="M6984.64 9884.44c33.01,-7.33 67.62,-18.16 101.46,-26.56 1115.73,-276.7 4408.55,-1352.85 4408.55,-1352.85 337.7,-104.3 288.89,-592.92 -54.07,-592.92 -2.66,0 -5.62,0 -8.1,0.24l-4527.94 319.29c-470.22,64.49 -643.27,102.89 -697.93,982.21 -13.97,227.3 -70.58,707.51 478.38,707.51 84.72,0 183.64,-11.3 299.65,-36.92z"/>
 </g>
</svg>
