<?xml version="1.0" encoding="UTF-8"?>
<!DOCTYPE svg PUBLIC "-//W3C//DTD SVG 1.1//EN" "http://www.w3.org/Graphics/SVG/1.1/DTD/svg11.dtd">
<!-- Creator: CorelDRAW 2020 (64 Bit Versão de avaliação) -->
<svg xmlns="http://www.w3.org/2000/svg" xml:space="preserve" width="340mm" height="160mm" version="1.1" style="shape-rendering:geometricPrecision; text-rendering:geometricPrecision; image-rendering:optimizeQuality; fill-rule:evenodd; clip-rule:evenodd"
viewBox="0 0 34000 16000"
 xmlns:xlink="http://www.w3.org/1999/xlink"
 xmlns:xodm="http://www.corel.com/coreldraw/odm/2003">
 <defs>
  <style type="text/css">
   <![CDATA[
    .fil0 {fill:#0733AD}
    .fil1 {fill:#F9F9F9;fill-rule:nonzero}
    .fil2 {fill:#FF1049;fill-rule:nonzero}
   ]]>
  </style>
 </defs>
 <g id="Camada_x0020_1">
  <metadata id="CorelCorpID_0Corel-Layer"/>
  <rect class="fil0" x="-1.07" y="1" width="34000" height="16000"/>
  <g id="_1254741508064">
   <path class="fil1" d="M8491.2 10895.3l-458.79 3265.31 -307.3 0 458.8 -3265.31 307.29 0zm1089.25 0l-37.5 273.71 -2485.98 0 39 -273.71 2484.48 0zm1168.17 -5.41c158.22,0 316.44,0 476.15,0 159.71,0 316.62,2.61 473.53,6.72 155.61,5.41 307.3,12.13 456.19,21.46l-42.92 241.43 -1320.04 0c-116.8,0 -205.42,28.17 -265.69,84.52 -60.45,57.65 -97.95,144.97 -112.69,261.58l-284.35 2057.96c-16.23,107.47 0,189.19 46.83,245.54 47.02,57.65 126.13,85.83 237.52,85.83l1310.71 0 -5.41 241.62c-144.78,9.32 -292.37,16.04 -444.05,18.65 -151.51,4.11 -303.19,6.72 -454.7,8.03 -151.68,1.49 -300.57,2.8 -449.46,2.8 -205.24,0 -355.62,-55.05 -450.78,-163.63 -96.65,-108.78 -132.84,-253.56 -107.28,-433.43l303.19 -2149.19c21.46,-161.02 85.83,-289.76 193.11,-386.41 107.28,-95.15 253.56,-143.48 440.14,-143.48zm-672.24 1415.39l1684.99 0 -33.59 241.43 -1688.91 5.41 37.51 -246.84zm3099.81 -1409.98l-369.05 2668.26c-14.74,100.76 0,181.17 45.71,241.62 45.53,60.27 124.64,89.75 238.82,89.75l1220.79 0 -9.52 241.62c-210.46,11.94 -425.21,19.96 -641.27,24.06 -215.87,4.11 -430.62,5.42 -641.08,5.42 -116.8,0 -218.86,-24.26 -305.99,-73.89 -87.14,-49.63 -148.89,-119.41 -186.4,-210.65 -37.68,-91.23 -47.01,-199.82 -28.17,-327.26l364.76 -2658.93 311.4 0zm2706.32 -5.41c158.22,0 316.44,0 476.15,0 159.71,0 316.63,2.61 473.54,6.72 155.61,5.41 307.29,12.13 456.18,21.46l-42.91 241.43 -1320.04 0c-116.8,0 -205.43,28.17 -265.69,84.52 -60.45,57.65 -97.95,144.97 -112.69,261.58l-284.35 2057.96c-16.23,107.47 0,189.19 46.83,245.54 47.02,57.65 126.13,85.83 237.52,85.83l1310.71 0 -5.41 241.62c-144.78,9.32 -292.37,16.04 -444.06,18.65 -151.5,4.11 -303.19,6.72 -454.69,8.03 -151.69,1.49 -300.58,2.8 -449.47,2.8 -205.23,0 -355.62,-55.05 -450.77,-163.63 -96.65,-108.78 -132.84,-253.56 -107.28,-433.43l303.19 -2149.19c21.45,-161.02 85.82,-289.76 193.11,-386.41 107.28,-95.15 253.56,-143.48 440.13,-143.48zm-672.24 1415.39l1684.99 0 -33.58 241.43 -1688.91 5.41 37.5 -246.84zm3881.21 -1467.63c135.46,0 252.25,2.61 352.82,9.33 99.26,6.72 187.88,17.35 266.99,29.48 79.11,12.13 161.02,30.97 245.54,56.35l-56.35 232.1c-88.62,-12.13 -171.83,-22.76 -250.94,-30.79 -79.11,-8.02 -161.02,-13.43 -248.15,-17.53 -87.32,-2.62 -190.5,-3.92 -309.91,-3.92 -179.86,0 -332.67,24.07 -458.8,71.08 -127.43,46.84 -234.9,124.64 -324.64,232.11 -89.93,107.28 -165.13,252.07 -222.78,434.54 -57.65,183.78 -104.67,413.27 -139.56,690.9 -49.63,350.21 -61.57,627.84 -34.89,830.46 25.56,203.93 99.26,348.9 221.47,436.03 122.02,87.14 296.47,131.54 523.17,135.46 202.62,0 371.66,-5.41 509.73,-14.74 136.95,-9.33 271.1,-22.76 403.94,-42.91l24.07 232.1c-139.56,34.89 -279.12,60.27 -419.99,76.5 -140.87,14.74 -312.52,22.76 -517.75,22.76 -309.91,0 -548.73,-57.65 -719.08,-173.14 -170.34,-114 -280.43,-297.78 -328.75,-548.54 -49.63,-250.95 -45.52,-578.21 12.13,-982.15 44.22,-308.42 103.36,-570.19 177.06,-784.75 73.89,-214.57 167.74,-387.71 281.73,-519.25 114,-130.05 253.56,-225.39 418.69,-284.35 164.93,-57.65 363.45,-87.13 594.25,-87.13zm2639.9 -4.1c299.09,0 535.29,55.04 708.25,164.93 171.84,111.39 283.04,291.25 335.47,539.4 52.24,249.46 48.33,583.62 -12.13,1003.42 -41.6,312.71 -97.95,576.9 -171.65,792.96 -73.88,215.87 -167.73,389.01 -281.73,517.75 -114,130.24 -253.56,224.08 -421.3,281.74 -167.73,59.14 -364.94,88.62 -591.64,88.62 -299.08,0 -536.6,-55.04 -712.35,-163.63 -175.76,-108.77 -289.76,-288.45 -343.5,-538.09 -53.54,-248.15 -52.24,-584.92 5.41,-1007.52 44.22,-308.42 102.06,-570.19 174.46,-783.45 72.39,-213.26 166.24,-384.91 281.73,-517.75 115.31,-132.85 257.48,-228.19 426.52,-288.45 167.73,-60.45 369.05,-89.93 602.46,-89.93zm-18.84 279.12c-240.13,0 -434.73,44.22 -583.62,132.65 -150.2,88.63 -268.3,236.21 -352.82,444.06 -85.83,208.04 -154.3,492.38 -203.93,851.92 -49.63,350.21 -60.27,627.84 -32.09,830.46 28.17,203.93 103.17,350.21 226.69,438.65 122.02,88.62 299.08,132.84 529.88,132.84 240.13,0 433.42,-45.52 582.31,-135.46 147.59,-89.93 267,-238.82 356.74,-446.66 89.93,-208.04 158.41,-491.08 205.24,-848 53.73,-355.44 67.17,-635.86 38.99,-839.79 -28.17,-202.63 -104.67,-347.41 -226.69,-433.24 -123.51,-84.52 -303.19,-127.43 -540.7,-127.43zm5157.22 -217.37c44.21,0 76.49,13.44 99.25,40.3 22.77,26.69 32.1,61.58 28.18,105.98l-303.19 3119.03 -312.71 0 303.19 -3005.03 -99.26 0 -1206.04 2565.08c-16.05,34.89 -34.89,60.27 -56.35,75.01 -22.76,16.23 -52.24,24.25 -91.23,24.25l-312.52 0c-37.51,0 -67.17,-10.82 -88.63,-30.97 -22.76,-20.15 -38.81,-48.32 -48.14,-83.21l-501.89 -2550.16 -103.18 0 -544.62 3005.03 -307.3 0 571.49 -3132.46c9.33,-44.41 26.87,-77.81 50.94,-100.76 22.76,-21.45 55.04,-32.09 96.65,-32.09l363.64 0c34.7,0 62.87,10.64 85.82,30.79 22.77,20.15 34.89,48.32 37.51,81.91l430.62 2130.35c16.04,76.5 29.48,150.2 40.3,224.08 10.63,73.7 22.76,147.59 36.2,221.28l103.36 0c30.79,-76.49 64.37,-151.5 99.26,-228 34.89,-75.19 68.29,-147.58 99.26,-217.36l1008.83 -2139.87c18.85,-37.5 38.81,-62.88 61.76,-77.8 21.45,-14.74 50.93,-21.46 89.74,-21.46l369.06 -3.92z"/>
   <path class="fil1" d="M11664.91 3841.51c221.84,0 416.07,42.92 583.8,129.68 167.92,86.94 293.67,214.56 377.26,385.09 84.15,170.54 107.28,383.05 69.04,637.17l-421.86 2993.47 -1476.39 0 357.48 -2522.92c21.08,-146.09 13.06,-247.4 -24.44,-304.68 -38.06,-55.97 -119.79,-78.92 -243.49,-68.48 -135.64,0 -284.34,40.12 -446.29,121.84 -162.51,80.98 -356.74,213.26 -584.55,397.41l-219.05 -657.5c292.18,-345.54 617.95,-617.39 977.3,-814.79 360.1,-197.59 710.31,-296.29 1051.19,-296.29zm-1817.28 113.26l24.44 1070.96 129.67 105.23 -397.6 2855.96 -1476.39 0 560.11 -4032.15 1159.77 0z"/>
   <path class="fil1" d="M17649.23 2307.84l-795.01 5679.08 -1168.36 0 -24.44 -1045.96 -137.51 -81.54 380.99 -2758.56 72.58 -129.67c0,-134.9 4.48,-271.85 12.5,-409.36 8.4,-138.25 22.95,-283.04 44.6,-434.54l146.27 -819.45 1468.38 0zm-2969.77 1533.67c411.4,0 798.37,28.36 1160.33,84.9 362.71,56.53 649.1,147.39 860.31,271.84l-162.51 576.53c-215.87,0 -414.76,-1.87 -596.49,-4.48 -180.98,-2.61 -390.14,-4.1 -628.58,-4.1 -151.32,0 -278.38,13.24 -381,40.3 -102.61,26.87 -185.64,78.92 -247.59,154.67 -62.5,75.57 -113.81,183.6 -153.92,324.46 -40.86,140.12 -77.06,327.07 -109.9,560.11 -27.05,237.7 -44.78,432.49 -52.61,583.81 -8.03,151.5 12.5,260.65 60.45,328.56 49.44,67.73 135.64,101.31 260.09,101.31 194.79,-11.19 377.07,-69.78 547.61,-178.37 170.34,-108.03 342.18,-238.26 515.33,-389.01l275.76 616.08c-76.31,92.17 -177.06,203.93 -304.68,336.4 -127.06,132.84 -275.21,262.52 -445.74,389.58 -170.35,127.62 -355.99,234.34 -556.19,321.29 -200.01,86.19 -413.27,128.92 -640.34,128.92 -319.23,0 -576.53,-78.36 -771.5,-234.9 -194.79,-156.73 -323.71,-398.91 -389.58,-726.17 -64.55,-327.07 -64.55,-745 0,-1253.06 54.67,-411.4 135.65,-749.86 244.23,-1014.42 107.85,-265.13 236.21,-472.61 384.92,-620.56 148.89,-148.89 318.67,-252.26 510.85,-308.79 192.17,-56.54 398.9,-84.9 620.75,-84.9z"/>
   <path class="fil1" d="M20537.84 3971l1444.12 114 -552.09 3902.48 -1135.52 0 0 -892.6 -186.95 -121.83 430.44 -3002.05zm778.78 -2190.43l486.41 1030.66 -2044.35 827.47 -348.9 -608.8 1906.84 -1249.33zm-1282.17 2060.76c140.86,0 304.12,8.02 490.89,24.44 186.95,16.42 374.65,36.76 564.21,61.2 188.82,23.69 363.27,49.25 523.17,76.31 159.33,27.05 283.04,54.67 369.24,81.72l-1087.38 762.73c-172.96,-5.97 -334.91,-9.89 -486.97,-12.5 -151.32,-2.61 -313.27,-3.92 -486.42,-3.92 -129.67,0 -243.48,11.94 -340.87,36.2 -97.58,24.44 -179.87,70.53 -247.59,138.25 -67.73,67.17 -127.06,169.23 -178.37,304.13 -51.31,135.45 -93.48,313.82 -125.76,535.66 -43.47,302.82 -68.47,533.81 -77.05,693.14 -7.84,159.9 11.94,266.62 60.63,320.55 48.7,54.66 133.03,81.72 251.51,81.72 124.26,-11.2 257.29,-64 397.41,-158.78 140.87,-94.78 277.82,-219.79 410.1,-377.08 132.29,-156.72 252.82,-329.68 360.66,-519.24l243.67 430.43c-91.61,356.74 -232.47,664.78 -422.04,924.69 -188.82,259.34 -415.88,460.1 -681.2,600.41 -265.31,140.86 -565.33,221.09 -900.43,243.48 -373.15,21.08 -654.89,-52.05 -843.7,-219.23 -189.57,-167.73 -304.13,-420.55 -344.99,-758.25 -40.86,-338.27 -25.75,-750.98 44.78,-1237.39 70.34,-471.3 175.01,-843.15 315.88,-1116.3 140.87,-273.15 316.62,-473.91 527.27,-604.33 211.21,-129.67 456.18,-213.26 734.56,-251.32 279.12,-37.5 588.47,-56.72 928.79,-56.72z"/>
   <path class="fil1" d="M24253.18 3841.51c325.2,0 639.77,12.51 945.76,36.2 304.87,24.44 579.89,55.41 823.56,93.48 242.74,38.25 432.3,75.75 567.39,114l-1087.38 762.17c-172.59,-5.22 -336.4,-9.33 -491.08,-11.94 -154.11,-3.17 -319.98,-4.48 -498.35,-4.48 -162.51,0 -294.79,16.42 -397.41,48.7 -103.37,32.84 -185.65,85.45 -247.59,158.59 -62.51,72.95 -112.51,175.76 -150.01,308.6 -38.25,132.28 -73.14,298.15 -105.98,498.35 -53.92,303.38 -80.97,535.67 -80.97,697.62 0,162.7 27.05,272.59 80.97,329.12 54.67,56.72 138.26,79.67 252.07,68.48 129.67,-15.86 264.01,-69.78 401.52,-161.95 137.51,-92.17 274.45,-215.13 409.35,-369.24 135.64,-153.93 256.73,-328.38 365.32,-523.17l243.49 421.86c-91.99,351.51 -235.47,652.83 -430.44,904.34 -194.79,251.51 -425.77,446.3 -693.7,584.55 -267.18,137.51 -566.08,211.96 -896.51,223.15 -367.93,15.67 -647.61,-58.58 -839.23,-223.15 -192.18,-165.31 -311.21,-410.84 -357.3,-738.47 -46.08,-327.26 -30.97,-723.37 44.78,-1188.14 70.34,-471.29 168.48,-843.15 296.1,-1116.3 127.06,-273.15 278.38,-473.91 454.13,-604.32 175.76,-129.68 380.44,-213.26 612.91,-251.33 232.29,-38.24 491.64,-56.72 778.6,-56.72zm900.43 129.68l1444.67 114 -470.55 3317.92c-65.11,470.55 -173.7,854.35 -324.46,1151.94 -151.31,297.4 -339.57,524.47 -564.03,681.94 -224.45,156.54 -474.65,264.57 -751.16,324.46 -275.02,59.15 -567.39,91.43 -875.99,97.4 -97.39,0 -247.59,-5.97 -450.21,-16.42 -202.81,-11.2 -417.38,-33.59 -645,-69.22 -227.07,-34.89 -429.88,-90.87 -608.25,-165.87l80.98 -811.62 264 0 324.46 0 490.33 0c384.35,-5.22 714.23,-53.92 990.55,-146.09 275.76,-92.17 469.99,-257.29 583.8,-494.24 80.98,-152.07 136.39,-304.69 166.62,-458.8 29.66,-154.68 82.28,-298.9 158.03,-434.36l-251.51 -97.39 437.72 -2993.65z"/>
   <path class="fil1" d="M28411.08 2137.49c156.54,0 270.54,38.25 340.88,114 70.34,75.57 97.39,192.18 80.98,348.72l-56.54 429.87c-32.28,270.54 -194.97,405.44 -487.15,405.44l-583.81 0c-314.01,0 -451.52,-153.93 -414.02,-461.97l57.28 -429.88c26.31,-270.53 186.21,-406.18 478.39,-406.18l583.99 0zm211.21 1817.28l-560.11 4032.33 -1468.56 0 560.29 -4032.33 1468.38 0z"/>
   <path class="fil1" d="M30842.95 2307.84l-616.65 4316.49c-21.83,124.45 -7.83,208.04 40.86,251.51 48.7,42.73 151.32,65.12 308.05,65.12l340.88 0 80.97 981.4c-80.97,37.5 -189.56,69.22 -324.46,93.48 -135.08,24.44 -270.54,42.72 -405.44,56.72 -135.64,13.06 -246.84,20.33 -332.48,20.33 -416.63,0 -735.12,-101.31 -953.79,-304.12 -219.04,-203.37 -306.73,-480.44 -263.26,-831.95l656.94 -4648.98 1468.38 0z"/>
   <path class="fil1" d="M5403.33 6855.5l-20.34 5.42c-15.86,4.47 -32.28,8.39 -48.14,12.5 -85.45,19.03 -162.51,28.17 -233.59,28.17 -208.6,0 -329.87,-82.84 -394.99,-152.62 -153.93,-164.56 -138.81,-389.02 -130.98,-510.11l1.31 -17.72c2.05,-33.03 4.66,-64.56 7.27,-94.78 3.36,-229.12 32.28,-524.66 91.43,-888.68 33.58,-223.71 67.91,-413.27 101.5,-589.77 47.39,-217.18 88.06,-393.5 135.45,-542.39 88.25,-257.29 196.84,-440.32 345.55,-535.66 142.17,-94.79 332.48,-148.89 569.43,-148.89 236.96,0 406.75,47.39 528.58,142.17 115.12,88.25 176.32,258.04 189.57,501.71 7.27,101.87 7.27,230.24 -6.54,373.16 -13.24,189.56 -33.58,419.98 -74.44,684.55 -7.84,51.87 -16.42,102.62 -24.44,152.62 -3.17,20.53 13.8,38.81 34.33,36.95l1536.85 -108.03c0,0 41.42,-2.61 53.92,-3.92 1.49,-12.5 4.1,-18.47 5.41,-30.97 95.34,-724.67 81.53,-1287.39 -40.3,-1700.85 0,-6.53 -7.09,-20.34 -7.09,-26.87 -128.37,-427.26 -372.6,-731.95 -738.48,-914.98 -366.07,-176.32 -840.54,-264.57 -1430.31,-264.57 -433.8,0 -806.39,40.86 -1124.88,135.64 -311.96,88.07 -575.97,236.96 -793.15,454.14 -217.18,209.9 -399.65,508.05 -535.11,874.12 -136.39,373.15 -250.76,840.53 -332.48,1396.72 -102.06,765.53 -94.78,1362.4 20.34,1795.63 121.83,427.08 359.53,732.51 711.61,914.8 359.35,176.5 847.06,264.57 1457.18,264.57 433.79,0 813.67,-40.68 1132.16,-128.93 317.93,-87.5 589.77,-236.95 806.39,-447.04 223.71,-210.46 400.21,-501.52 542.38,-873.93 63.07,-165.87 119.04,-352.26 169.04,-556.19 -553.58,178.92 -1946.95,625.97 -2504.44,764.03z"/>
   <path class="fil2" d="M5285.6 6648.96c20.52,-4.66 41.6,-11.19 62.5,-16.6 687.92,-170.35 2717.89,-833.82 2717.89,-833.82 207.85,-64.56 178.37,-365.32 -33.58,-365.32l-4.67 0 -2791.4 196.84c-290.32,39.36 -396.85,63.06 -430.44,605.44 -8.58,140.31 -43.47,436.41 294.8,436.41 52.05,0 113.25,-7.28 184.9,-22.95z"/>
  </g>
 </g>
</svg>
