<?xml version="1.0" encoding="UTF-8"?>
<!DOCTYPE svg PUBLIC "-//W3C//DTD SVG 1.1//EN" "http://www.w3.org/Graphics/SVG/1.1/DTD/svg11.dtd">
<!-- Creator: CorelDRAW 2020 (64 Bit Versão de avaliação) -->
<svg xmlns="http://www.w3.org/2000/svg" xml:space="preserve" width="150mm" height="150mm" version="1.1" style="shape-rendering:geometricPrecision; text-rendering:geometricPrecision; image-rendering:optimizeQuality; fill-rule:evenodd; clip-rule:evenodd"
viewBox="0 0 15000 15000"
 xmlns:xlink="http://www.w3.org/1999/xlink"
 xmlns:xodm="http://www.corel.com/coreldraw/odm/2003">
 <defs>
  <style type="text/css">
   <![CDATA[
    .fil0 {fill:#0733AD}
    .fil1 {fill:#F9F9F9;fill-rule:nonzero}
    .fil2 {fill:#FF1049;fill-rule:nonzero}
   ]]>
  </style>
 </defs>
 <g id="Camada_x0020_1">
  <metadata id="CorelCorpID_0Corel-Layer"/>
  <rect class="fil0" x="-1.47" y="1.47" width="15000" height="15000"/>
  <path class="fil1" d="M4758.46 11968.59l-147.55 1050.08 -98.82 0 147.54 -1050.08 98.83 0zm350.28 0l-12.06 88.02 -799.45 0 12.54 -88.02 798.97 0zm375.67 -1.74c50.88,0 101.76,0 153.12,0 51.36,0 101.82,0.84 152.29,2.16 50.04,1.74 98.82,3.9 146.7,6.9l-13.8 77.64 -424.51 0c-37.56,0 -66.06,9.06 -85.44,27.18 -19.44,18.54 -31.5,46.62 -36.24,84.12l-91.44 661.82c-5.22,34.56 0,60.84 15.06,78.96 15.12,18.54 40.56,27.6 76.38,27.6l421.51 0 -1.74 77.7c-46.57,3 -94.03,5.16 -142.81,6 -48.72,1.32 -97.5,2.16 -146.22,2.58 -48.78,0.48 -96.66,0.9 -144.54,0.9 -66,0 -114.37,-17.7 -144.97,-52.62 -31.08,-34.98 -42.72,-81.54 -34.5,-139.38l97.51 -691.16c6.9,-51.78 27.6,-93.18 62.1,-124.26 34.5,-30.6 81.54,-46.14 141.54,-46.14zm-216.18 455.17l541.87 0 -10.8 77.64 -543.13 1.74 12.06 -79.38zm996.86 -453.43l-118.69 858.08c-4.74,32.4 0,58.26 14.7,77.7 14.64,19.38 40.08,28.86 76.8,28.86l392.59 0 -3.06 77.7c-67.68,3.84 -136.74,6.42 -206.22,7.74 -69.42,1.32 -138.48,1.74 -206.17,1.74 -37.56,0 -70.38,-7.8 -98.4,-23.76 -28.02,-15.96 -47.88,-38.4 -59.94,-67.74 -12.12,-29.34 -15.12,-64.26 -9.06,-105.24l117.3 -855.08 100.15 0zm870.31 -1.74c50.88,0 101.76,0 153.13,0 51.36,0 101.82,0.84 152.28,2.16 50.04,1.74 98.82,3.9 146.7,6.9l-13.8 77.64 -424.51 0c-37.56,0 -66.06,9.06 -85.44,27.18 -19.44,18.54 -31.5,46.62 -36.24,84.12l-91.44 661.82c-5.22,34.56 0,60.84 15.06,78.96 15.12,18.54 40.56,27.6 76.38,27.6l421.51 0 -1.74 77.7c-46.56,3 -94.02,5.16 -142.8,6 -48.72,1.32 -97.51,2.16 -146.23,2.58 -48.78,0.48 -96.66,0.9 -144.54,0.9 -66,0 -114.36,-17.7 -144.96,-52.62 -31.08,-34.98 -42.72,-81.54 -34.5,-139.38l97.5 -691.16c6.9,-51.78 27.6,-93.18 62.1,-124.26 34.5,-30.6 81.54,-46.14 141.54,-46.14zm-216.18 455.17l541.87 0 -10.8 77.64 -543.13 1.74 12.06 -79.38zm1248.14 -471.97c43.56,0 81.13,0.84 113.47,3 31.92,2.16 60.42,5.58 85.86,9.48 25.44,3.9 51.78,9.96 78.96,18.12l-18.12 74.64c-28.5,-3.9 -55.26,-7.32 -80.7,-9.9 -25.44,-2.58 -51.78,-4.32 -79.8,-5.64 -28.09,-0.84 -61.27,-1.26 -99.67,-1.26 -57.84,0 -106.98,7.74 -147.54,22.86 -40.98,15.06 -75.54,40.08 -104.4,74.64 -28.92,34.5 -53.1,81.06 -71.64,139.74 -18.54,59.11 -33.66,132.91 -44.88,222.19 -15.96,112.62 -19.8,201.9 -11.22,267.06 8.22,65.59 31.92,112.21 71.22,140.23 39.24,28.02 95.34,42.3 168.24,43.56 65.16,0 119.52,-1.74 163.92,-4.74 44.04,-3 87.19,-7.32 129.91,-13.8l7.74 74.64c-44.88,11.22 -89.77,19.38 -135.07,24.6 -45.3,4.74 -100.5,7.32 -166.5,7.32 -99.66,0 -176.46,-18.54 -231.24,-55.68 -54.79,-36.66 -90.19,-95.76 -105.73,-176.4 -15.96,-80.71 -14.64,-185.95 3.9,-315.85 14.22,-99.18 33.24,-183.36 56.95,-252.37 23.76,-69 53.94,-124.68 90.6,-166.98 36.66,-41.82 81.54,-72.48 134.64,-91.44 53.04,-18.54 116.88,-28.02 191.1,-28.02zm848.96 -1.32c96.18,0 172.14,17.7 227.76,53.04 55.27,35.82 91.03,93.66 107.89,173.46 16.8,80.22 15.54,187.69 -3.9,322.69 -13.38,100.56 -31.5,185.52 -55.2,255 -23.76,69.43 -53.95,125.11 -90.61,166.51 -36.66,41.88 -81.54,72.06 -135.48,90.6 -53.94,19.02 -117.36,28.5 -190.26,28.5 -96.18,0 -172.57,-17.7 -229.09,-52.62 -56.52,-34.98 -93.18,-92.76 -110.46,-173.04 -17.22,-79.81 -16.8,-188.11 1.74,-324.01 14.22,-99.18 32.82,-183.36 56.1,-251.95 23.28,-68.58 53.46,-123.78 90.6,-166.5 37.08,-42.72 82.81,-73.38 137.17,-92.76 53.94,-19.44 118.68,-28.92 193.74,-28.92zm-6.06 89.76c-77.22,0 -139.8,14.22 -187.68,42.66 -48.3,28.5 -86.29,75.96 -113.47,142.8 -27.6,66.91 -49.62,158.35 -65.58,273.97 -15.96,112.62 -19.38,201.9 -10.32,267.06 9.06,65.59 33.18,112.63 72.9,141.07 39.24,28.5 96.19,42.72 170.41,42.72 77.22,0 139.38,-14.64 187.26,-43.56 47.46,-28.92 85.86,-76.8 114.72,-143.65 28.92,-66.9 50.94,-157.92 66,-272.7 17.29,-114.3 21.61,-204.48 12.55,-270.07 -9.06,-65.16 -33.67,-111.72 -72.91,-139.32 -39.72,-27.18 -97.5,-40.98 -173.88,-40.98zm1658.49 -69.9c14.22,0 24.6,4.32 31.92,12.96 7.32,8.58 10.32,19.8 9.06,34.08l-97.5 1003.04 -100.56 0 97.5 -966.38 -31.92 0 -387.85 824.9c-5.16,11.22 -11.22,19.38 -18.12,24.12 -7.32,5.22 -16.8,7.8 -29.34,7.8l-100.5 0c-12.06,0 -21.6,-3.48 -28.5,-9.96 -7.32,-6.48 -12.48,-15.54 -15.48,-26.76l-161.4 -820.1 -33.18 0 -175.15 966.38 -98.82 0 183.78 -1007.36c3,-14.28 8.64,-25.02 16.38,-32.4 7.32,-6.9 17.71,-10.32 31.09,-10.32l116.94 0c11.16,0 20.22,3.42 27.6,9.9 7.32,6.48 11.22,15.54 12.06,26.34l138.48 685.09c5.16,24.6 9.48,48.3 12.96,72.06 3.42,23.7 7.32,47.47 11.64,71.17l33.24 0c9.9,-24.6 20.7,-48.73 31.92,-73.33 11.22,-24.18 21.96,-47.46 31.92,-69.9l324.43 -688.15c6.06,-12.06 12.48,-20.22 19.86,-25.02 6.9,-4.74 16.38,-6.9 28.86,-6.9l118.68 -1.26z"/>
  <path class="fil1" d="M3921.62 10649.22c-43.62,32.64 -106.68,47.88 -184.81,47.88 -74.1,0 -130.62,-15.24 -167.4,-45.72 -34.92,-28.2 -54.42,-80.46 -60.96,-154.32l0 -6.54c-4.44,-78.36 4.2,-191.4 28.32,-339.13 10.62,-71.76 21.6,-132.72 32.64,-189.24 15,-69.6 28.14,-126.12 43.38,-174 28.38,-82.51 63.06,-141.19 110.7,-171.67 45.73,-30.48 106.69,-47.82 182.89,-47.82 75.96,0 130.38,15.24 169.56,45.72 36.78,28.14 56.46,82.56 60.96,160.87 1.86,32.58 1.86,73.86 -2.34,119.58 -4.44,60.78 -10.8,134.88 -23.7,219.54 -24.18,156.61 -50.16,278.35 -78.54,360.91 -6.36,19.68 -12.9,37.02 -19.5,52.26 -26.04,56.52 -56.52,97.8 -91.2,121.68zm691.51 -1065.32c0,-2.1 -2.34,-6.54 -2.34,-8.7 -41.28,-136.92 -119.76,-234.9 -237.06,-293.58 -117.48,-56.53 -269.65,-84.85 -458.71,-84.85 -139.02,0 -258.85,13.08 -360.85,43.56 -100.14,28.39 -184.8,76.03 -254.46,145.69 -69.61,67.5 -128.29,162.96 -171.85,280.44 -43.44,119.59 -80.46,269.65 -106.5,447.91 -32.58,245.71 -30.24,437.11 6.6,576.13 39.12,136.99 115.14,234.97 228.13,293.59 115.2,56.52 272.04,84.66 467.4,84.66 139.51,0 261.19,-12.9 363.19,-41.04 102.24,-28.38 189.25,-76.2 258.91,-143.7 71.76,-67.32 128.04,-160.87 173.76,-280.51 45.72,-119.58 80.46,-269.4 104.34,-452.11 0,-6.54 2.34,-15.24 2.34,-21.78 30.48,-232.62 26.04,-413.23 -12.9,-545.71z"/>
  <path class="fil1" d="M5781.78 9700.12c71.34,0 133.8,13.98 187.74,41.7 54,27.97 94.44,69.25 121.32,124.03 27.06,54.84 34.26,123 22.02,204.72l-135.48 962.9 -474.79 0 114.72 -811.58c7.02,-46.98 4.26,-79.56 -7.8,-97.8 -12.3,-18.18 -38.34,-25.62 -78.36,-22.2 -43.56,0 -91.2,12.9 -143.28,39.18 -52.26,26.22 -114.9,68.76 -187.99,127.8l-70.44 -211.2c93.96,-111.36 198.55,-198.78 314.29,-262.26 115.8,-63.55 228.18,-95.29 338.05,-95.29zm-584.6 36.6l7.8 344.41 41.94 33.66 -127.86 918.68 -475.03 0 180.19 -1296.75 372.96 0z"/>
  <path class="fil1" d="M7706.07 9207.03l-255.48 1826.32 -375.73 0 -8.04 -336.37 -44.28 -26.22 122.82 -887.11 23.28 -41.71c0,-43.38 1.44,-87.42 3.78,-131.88 2.76,-44.22 7.62,-90.78 14.4,-139.5l47.22 -263.53 472.03 0zm-954.85 493.21c132.06,0 256.5,9.12 373.14,27.3 116.46,18.18 208.75,47.41 276.67,87.43l-52.26 185.22c-69.66,0 -133.39,-0.42 -191.77,-1.26 -58.26,-0.84 -125.76,-1.5 -202.38,-1.5 -48.48,0 -89.52,4.44 -122.58,13.14 -33,8.64 -59.46,25.38 -79.56,49.5 -20.11,24.54 -36.61,59.28 -49.33,104.34 -13.32,45.3 -24.96,105.43 -35.34,180.19 -8.7,76.62 -14.4,139.26 -16.92,187.74 -2.76,48.9 3.78,84 19.26,105.84 15.84,21.78 43.8,32.58 83.83,32.58 62.64,-3.6 121.26,-22.68 176.1,-57.36 54.78,-34.92 110.04,-76.62 165.54,-125.34l88.68 198.36c-24.36,29.4 -56.94,65.58 -97.8,108.19 -40.86,42.72 -88.68,84.42 -143.28,125.28 -54.84,40.86 -114.78,75.36 -178.86,103.08 -64.39,27.72 -133.15,41.7 -206.23,41.7 -102.6,0 -185.16,-25.2 -247.86,-75.78 -62.65,-50.4 -104.35,-128.28 -125.29,-233.29 -20.76,-105.18 -20.76,-239.58 0,-403.2 17.34,-132.07 43.62,-240.91 78.55,-325.99 34.68,-85.26 75.78,-151.98 123.84,-199.56 47.58,-48.06 102.42,-81.13 164.22,-99.31 61.8,-18.18 128.28,-27.3 199.63,-27.3z"/>
  <path class="fil1" d="M8635.01 9741.88l464.41 36.43 -177.36 1255.22 -365.35 0 0 -287.05 -59.94 -39.18 138.24 -965.42zm250.63 -704.65l156.42 331.51 -657.67 266.28 -112.2 -195.84 613.45 -401.95zm-412.33 662.95c45.3,0 97.8,2.58 157.68,7.62 60.3,5.52 120.67,11.88 181.63,19.68 60.72,7.86 116.82,16.08 168.24,24.78 51.24,8.7 90.84,17.35 118.56,26.05l-349.44 245.34c-55.93,-1.74 -108.01,-3 -156.67,-4.02 -48.9,-0.66 -100.98,-1.08 -156.66,-1.08 -41.7,0 -78.3,3.84 -109.38,11.64 -31.38,7.86 -58.02,22.68 -79.62,44.22 -21.79,21.84 -40.87,54.66 -57.55,98.04 -16.56,43.38 -29.88,100.75 -40.44,172.09 -13.8,97.56 -22.02,171.84 -24.54,223.08 -2.76,51.42 3.78,85.74 19.44,103.08 15.66,17.34 42.78,26.28 80.64,26.28 40.21,-3.6 82.81,-20.58 128.11,-51.06 45.24,-30.48 89.1,-70.86 131.64,-121.26 42.72,-50.58 81.48,-106.02 116.22,-166.98l78.3 138.18c-29.64,114.72 -74.94,214.02 -135.9,297.43 -60.72,83.58 -133.56,147.96 -219.06,193.26 -85.09,45.06 -181.63,71.1 -289.57,78.3 -119.82,6.78 -210.42,-16.74 -271.38,-70.5 -60.73,-54 -97.81,-135.24 -110.89,-244.03 -12.96,-108.84 -8.28,-241.32 14.34,-397.98 22.68,-151.33 56.52,-270.91 101.83,-358.75 45.12,-87.84 101.82,-152.64 169.56,-194.34 67.74,-41.71 146.46,-68.59 236.04,-80.83 89.71,-12.06 189.43,-18.24 298.87,-18.24z"/>
  <path class="fil1" d="M9829.82 9700.12c104.52,0 205.92,4.02 304.14,11.64 97.98,7.86 186.49,18 264.79,30.06 78.3,12.3 139.26,24.36 182.7,36.61l-349.93 245.16c-55.44,-1.5 -107.94,-3 -157.68,-3.84 -49.5,-0.84 -102.84,-1.26 -160.2,-1.26 -52.5,0 -95.04,5.1 -128.1,15.66 -33,10.38 -59.47,27.3 -79.57,50.82 -19.92,23.46 -36.18,56.52 -48.3,99.24 -12.06,42.54 -23.46,96.13 -33.84,160.27 -17.58,97.56 -26.22,172.26 -26.22,224.34 0,52.32 8.64,87.66 26.22,105.84 17.34,18.18 44.22,25.62 80.88,22.2 41.71,-5.28 84.85,-22.62 129.13,-52.26 44.4,-29.4 88.44,-69.18 131.82,-118.74 43.44,-49.5 82.38,-105.6 117.3,-168.3l78.3 135.72c-29.4,113.04 -75.54,209.94 -138.24,291.01 -62.64,80.88 -136.92,143.52 -223.08,187.8 -86.17,44.22 -182.23,68.16 -288.31,71.76 -118.32,5.28 -208.26,-18.66 -269.89,-71.76 -61.8,-53.16 -100.32,-132.12 -114.9,-237.55 -14.82,-105.18 -9.96,-232.38 14.16,-382.02 22.86,-151.39 54.42,-270.97 95.28,-358.99 41.05,-87.66 89.53,-152.4 146.23,-194.1 56.34,-41.95 122.16,-68.83 196.86,-81.07 74.7,-12.12 158.34,-18.24 250.45,-18.24zm289.74 41.7l464.41 36.61 -151.14 1067.3c-21.18,151.08 -55.86,274.5 -104.58,370.2 -48.66,95.65 -109.21,168.67 -181.39,219.25 -72.18,50.64 -152.58,85.14 -241.32,104.4 -88.68,19.02 -182.65,29.58 -281.71,31.32 -31.32,0 -79.8,-1.74 -144.78,-5.34 -65.22,-3.54 -134.4,-10.74 -207.66,-22.2 -72.79,-11.22 -138.01,-28.98 -195.55,-53.34l26.22 -261.01 84.9 0 104.11 0 157.92 0c123.6,-1.68 229.68,-17.34 318.37,-46.98 88.68,-29.64 151.32,-82.56 187.92,-158.94 26.04,-48.72 43.86,-98.04 53.34,-147.54 9.78,-49.56 26.7,-96.12 50.82,-139.51l-80.82 -31.56 140.94 -962.66z"/>
  <path class="fil1" d="M11167 9152.25c50.4,0 87.01,12.3 109.63,36.42 22.68,24.36 31.32,61.8 26.28,112.39l-18.42 138c-10.38,87.24 -62.65,130.62 -156.67,130.62l-187.74 0c-100.98,0 -145.2,-49.5 -132.9,-148.56l18.18 -138.48c8.7,-87.01 59.88,-130.39 153.9,-130.39l187.74 0zm67.74 584.41l-179.94 1296.75 -472.21 0 180.13 -1296.75 472.02 0z"/>
  <path class="fil1" d="M11949 9207.03l-198.36 1387.95c-6.72,40.2 -2.28,67.08 13.14,80.82 15.66,13.98 48.72,21.18 99.3,21.18l109.44 0 25.98 315.43c-25.98,12.24 -60.96,22.2 -104.34,30.06 -43.38,7.8 -87,13.92 -130.38,18.42 -43.39,4.2 -79.15,6.3 -106.87,6.3 -133.98,0 -236.22,-32.58 -306.54,-97.74 -70.44,-65.22 -98.82,-154.32 -84.84,-267.37l211.44 -1495.05 472.03 0z"/>
  <path class="fil2" d="M7068.1 6485.19c704.4,-174.57 2783.26,-854.1 2783.26,-854.1 213.2,-65.73 182.39,-374.21 -34.13,-374.21l-5.12 0 -2858.64 201.58c-296.86,40.75 -406.11,64.99 -440.62,620.09 -8.82,143.62 -44.56,446.68 302.01,446.68 91.55,0 166.44,-18.64 253.24,-40.04z"/>
  <path class="fil1" d="M6975.73 3349.11c283.2,-188.7 849.17,-220.93 1124.33,-6.98 330.78,252.82 166.7,1236.31 111.09,1596.33 -8.04,53.64 -16.48,105.55 -24.62,156.39 -3.7,21.21 13.71,39.81 35.04,38.36l1628.86 -114.78c4.78,-36.79 11.24,-73.7 15.84,-111.01 112.61,-911.02 144.21,-2148 -815.26,-2627.21 -681.39,-328.13 -1890.09,-348.49 -2616.71,-131.89 -1236.8,349.19 -1535.86,1664.5 -1700.54,2790.14 -104.1,784.25 -97.12,1395.13 20.95,1839.3 124.9,437.45 367.87,749.74 728.79,937.13 367.75,180.52 867.54,270.65 1492.23,270.65 444.18,0 832.89,-41.65 1159.15,-131.93 724.19,-200.05 1119.69,-668.76 1381.15,-1353.33 64.8,-169.53 122.32,-359.46 173.38,-567.8 -565.23,183.01 -1995.95,641.5 -2564.8,782.49 -103.57,26.86 -202.25,47.44 -309.75,47.44 -474.8,0 -544.57,-311.62 -544.57,-567.02 0,-582.97 190.41,-2518.79 705.44,-2846.28z"/>
 </g>
</svg>
