<?xml version="1.0" encoding="UTF-8"?>
<!DOCTYPE svg PUBLIC "-//W3C//DTD SVG 1.1//EN" "http://www.w3.org/Graphics/SVG/1.1/DTD/svg11.dtd">
<!-- Creator: CorelDRAW 2020 (64 Bit Versão de avaliação) -->
<svg xmlns="http://www.w3.org/2000/svg" xml:space="preserve" width="150mm" height="150mm" version="1.1" style="shape-rendering:geometricPrecision; text-rendering:geometricPrecision; image-rendering:optimizeQuality; fill-rule:evenodd; clip-rule:evenodd"
viewBox="0 0 15000 15000"
 xmlns:xlink="http://www.w3.org/1999/xlink"
 xmlns:xodm="http://www.corel.com/coreldraw/odm/2003">
 <defs>
  <style type="text/css">
   <![CDATA[
    .fil0 {fill:#F9F9F9}
    .fil1 {fill:#0733AD;fill-rule:nonzero}
    .fil2 {fill:#FF1049;fill-rule:nonzero}
   ]]>
  </style>
 </defs>
 <g id="Camada_x0020_1">
  <metadata id="CorelCorpID_0Corel-Layer"/>
  <rect class="fil0" x="-1.47" y="1.47" width="15000" height="15000"/>
  <path class="fil1" d="M4758.33 11768.45l-147.54 1050.09 -98.82 0 147.54 -1050.09 98.82 0zm350.29 0l-12.06 88.03 -799.45 0 12.54 -88.03 798.97 0zm375.67 -1.74c50.88,0 101.76,0 153.12,0 51.36,0 101.82,0.84 152.29,2.16 50.04,1.74 98.82,3.9 146.7,6.9l-13.8 77.65 -424.51 0c-37.56,0 -66.06,9.06 -85.44,27.18 -19.44,18.54 -31.5,46.62 -36.24,84.12l-91.44 661.81c-5.22,34.56 0,60.84 15.06,78.96 15.12,18.54 40.56,27.6 76.38,27.6l421.51 0 -1.74 77.71c-46.57,3 -94.03,5.16 -142.81,6 -48.72,1.32 -97.5,2.16 -146.22,2.58 -48.78,0.48 -96.66,0.9 -144.54,0.9 -66,0 -114.37,-17.7 -144.97,-52.63 -31.08,-34.98 -42.72,-81.54 -34.5,-139.38l97.51 -691.15c6.9,-51.78 27.6,-93.18 62.1,-124.27 34.5,-30.6 81.54,-46.14 141.54,-46.14zm-216.19 455.17l541.88 0 -10.8 77.64 -543.14 1.75 12.06 -79.39zm996.87 -453.43l-118.69 858.08c-4.74,32.4 0,58.26 14.7,77.7 14.64,19.38 40.08,28.86 76.8,28.86l392.59 0 -3.06 77.71c-67.68,3.84 -136.74,6.42 -206.22,7.74 -69.42,1.32 -138.48,1.74 -206.17,1.74 -37.56,0 -70.38,-7.8 -98.4,-23.76 -28.02,-15.97 -47.88,-38.41 -59.94,-67.75 -12.12,-29.34 -15.12,-64.26 -9.06,-105.24l117.3 -855.08 100.15 0zm870.31 -1.74c50.88,0 101.76,0 153.13,0 51.36,0 101.82,0.84 152.28,2.16 50.04,1.74 98.82,3.9 146.7,6.9l-13.8 77.65 -424.51 0c-37.56,0 -66.06,9.06 -85.44,27.18 -19.44,18.54 -31.5,46.62 -36.24,84.12l-91.44 661.81c-5.22,34.56 0,60.84 15.06,78.96 15.12,18.54 40.56,27.6 76.38,27.6l421.51 0 -1.74 77.71c-46.56,3 -94.02,5.16 -142.8,6 -48.72,1.32 -97.51,2.16 -146.23,2.58 -48.78,0.48 -96.66,0.9 -144.54,0.9 -66,0 -114.36,-17.7 -144.96,-52.63 -31.08,-34.98 -42.72,-81.54 -34.5,-139.38l97.5 -691.15c6.9,-51.78 27.6,-93.18 62.1,-124.27 34.5,-30.6 81.54,-46.14 141.54,-46.14zm-216.18 455.17l541.87 0 -10.8 77.64 -543.13 1.75 12.06 -79.39zm1248.14 -471.97c43.56,0 81.13,0.84 113.47,3 31.92,2.16 60.42,5.58 85.86,9.48 25.44,3.9 51.78,9.96 78.96,18.12l-18.12 74.65c-28.5,-3.9 -55.26,-7.32 -80.7,-9.9 -25.44,-2.58 -51.78,-4.32 -79.8,-5.64 -28.09,-0.84 -61.27,-1.26 -99.67,-1.26 -57.84,0 -106.98,7.74 -147.54,22.86 -40.98,15.06 -75.54,40.08 -104.4,74.64 -28.92,34.5 -53.1,81.06 -71.64,139.74 -18.54,59.1 -33.66,132.9 -44.88,222.18 -15.96,112.63 -19.8,201.91 -11.22,267.07 8.22,65.58 31.92,112.2 71.22,140.22 39.24,28.02 95.34,42.3 168.24,43.56 65.16,0 119.52,-1.74 163.92,-4.74 44.04,-3 87.19,-7.32 129.91,-13.8l7.74 74.65c-44.88,11.22 -89.77,19.38 -135.07,24.6 -45.3,4.74 -100.5,7.32 -166.5,7.32 -99.66,0 -176.46,-18.54 -231.24,-55.69 -54.79,-36.66 -90.19,-95.76 -105.73,-176.4 -15.96,-80.7 -14.64,-185.94 3.9,-315.85 14.22,-99.18 33.24,-183.36 56.95,-252.36 23.76,-69 53.94,-124.68 90.6,-166.98 36.66,-41.82 81.54,-72.49 134.64,-91.45 53.04,-18.54 116.88,-28.02 191.1,-28.02zm848.96 -1.32c96.18,0 172.14,17.7 227.77,53.04 55.26,35.83 91.02,93.67 107.88,173.47 16.8,80.22 15.54,187.68 -3.9,322.68 -13.38,100.57 -31.5,185.53 -55.2,255.01 -23.76,69.42 -53.94,125.1 -90.61,166.5 -36.66,41.88 -81.54,72.07 -135.48,90.61 -53.94,19.02 -117.36,28.5 -190.26,28.5 -96.18,0 -172.57,-17.7 -229.09,-52.62 -56.52,-34.99 -93.18,-92.77 -110.46,-173.05 -17.22,-79.8 -16.8,-188.1 1.74,-324.01 14.22,-99.18 32.82,-183.36 56.1,-251.94 23.28,-68.58 53.46,-123.78 90.6,-166.5 37.08,-42.72 82.81,-73.39 137.17,-92.77 53.94,-19.44 118.68,-28.92 193.74,-28.92zm-6.06 89.77c-77.22,0 -139.8,14.22 -187.68,42.66 -48.3,28.5 -86.29,75.96 -113.47,142.8 -27.6,66.9 -49.62,158.34 -65.58,273.96 -15.96,112.63 -19.38,201.91 -10.32,267.07 9.06,65.58 33.18,112.62 72.9,141.06 39.25,28.5 96.19,42.72 170.41,42.72 77.22,0 139.38,-14.64 187.26,-43.56 47.46,-28.92 85.86,-76.8 114.72,-143.64 28.92,-66.9 50.94,-157.92 66.01,-272.71 17.28,-114.3 21.6,-204.48 12.54,-270.06 -9.06,-65.16 -33.67,-111.72 -72.91,-139.32 -39.72,-27.18 -97.5,-40.98 -173.88,-40.98zm1658.49 -69.91c14.22,0 24.6,4.32 31.92,12.96 7.32,8.58 10.32,19.8 9.06,34.08l-97.5 1003.05 -100.56 0 97.5 -966.38 -31.92 0 -387.85 824.89c-5.16,11.22 -11.22,19.38 -18.12,24.12 -7.32,5.22 -16.8,7.8 -29.34,7.8l-100.5 0c-12.06,0 -21.6,-3.48 -28.5,-9.96 -7.32,-6.48 -12.48,-15.54 -15.48,-26.76l-161.4 -820.09 -33.18 0 -175.15 966.38 -98.82 0 183.78 -1007.37c3,-14.28 8.64,-25.02 16.39,-32.4 7.32,-6.9 17.7,-10.32 31.08,-10.32l116.94 0c11.16,0 20.22,3.42 27.6,9.9 7.32,6.48 11.22,15.54 12.06,26.34l138.48 685.1c5.16,24.6 9.48,48.3 12.96,72.06 3.42,23.7 7.32,47.46 11.64,71.16l33.24 0c9.9,-24.6 20.7,-48.72 31.92,-73.32 11.22,-24.18 21.96,-47.46 31.92,-69.9l324.43 -688.16c6.06,-12.06 12.48,-20.22 19.86,-25.02 6.9,-4.74 16.38,-6.9 28.86,-6.9l118.68 -1.26z"/>
  <path class="fil1" d="M3921.5 10449.15c-43.62,32.58 -106.68,47.82 -184.81,47.82 -74.1,0 -130.62,-15.24 -167.4,-45.72 -34.92,-28.32 -54.42,-80.4 -60.96,-154.27l0 -6.6c-4.44,-78.3 4.2,-191.34 28.32,-339.3 10.62,-71.53 21.6,-132.49 32.64,-189.01 15,-69.66 28.14,-126.18 43.38,-174 28.38,-82.56 63.06,-141.18 110.7,-171.66 45.72,-30.49 106.69,-47.83 182.89,-47.83 75.96,0 130.38,15 169.56,45.49 36.78,28.38 56.46,82.56 60.96,161.1 1.86,32.4 1.86,73.86 -2.34,119.58 -4.44,60.78 -10.8,134.64 -23.7,219.49 -24.18,156.42 -50.16,278.34 -78.54,360.9 -6.36,19.68 -12.9,37.08 -19.5,52.08 -26.04,56.53 -56.52,97.99 -91.2,121.93zm691.51 -1065.57c0,-2.1 -2.34,-6.36 -2.34,-8.64 -41.28,-136.98 -119.76,-234.78 -237.06,-293.4 -117.49,-56.7 -269.65,-84.9 -458.71,-84.9 -139.03,0 -258.85,13.14 -360.85,43.62 -100.14,28.14 -184.8,76.02 -254.46,145.62 -69.61,67.32 -128.29,163.02 -171.85,280.51 -43.44,119.58 -80.46,269.4 -106.5,447.85 -32.58,245.76 -30.24,437.1 6.6,576.19 39.12,136.92 115.14,234.72 228.12,293.58 115.21,56.52 272.05,84.67 467.41,84.67 139.51,0 261.19,-13.14 363.19,-41.29 102.24,-28.38 189.24,-75.96 258.91,-143.52 71.76,-67.26 128.04,-160.86 173.76,-280.44 45.72,-119.59 80.46,-269.65 104.34,-452.35 0,-6.36 2.34,-15 2.34,-21.6 30.48,-232.63 26.04,-413.17 -12.9,-545.9z"/>
  <path class="fil1" d="M5781.66 9500.05c71.34,0 133.8,13.74 187.74,41.7 54,27.72 94.44,69 121.32,123.84 27.06,54.78 34.26,123.18 22.02,204.84l-135.48 962.72 -474.79 0 114.72 -811.33c7.02,-46.98 4.26,-79.62 -7.8,-98.04 -12.3,-17.94 -38.34,-25.38 -78.36,-21.96 -43.56,0 -91.2,12.9 -143.28,39.12 -52.26,26.04 -114.9,68.58 -187.99,127.86l-70.44 -211.45c93.96,-111.12 198.55,-198.54 314.29,-262.08 115.8,-63.48 228.18,-95.22 338.05,-95.22zm-584.6 36.42l7.8 344.35 41.94 33.9 -127.86 918.43 -475.03 0 180.19 -1296.68 372.96 0z"/>
  <path class="fil1" d="M7705.95 9006.84l-255.48 1826.31 -375.73 0 -8.04 -336.36 -44.28 -26.22 122.82 -887.12 23.28 -41.7c0,-43.38 1.44,-87.42 3.78,-131.64 2.76,-44.47 7.62,-91.03 14.4,-139.75l47.22 -263.52 472.03 0zm-954.86 493.21c132.07,0 256.51,9.12 373.15,27.3 116.46,18.18 208.75,47.4 276.67,87.42l-52.26 185.4c-69.66,0 -133.39,-0.6 -191.77,-1.44 -58.26,-0.9 -125.76,-1.32 -202.38,-1.32 -48.48,0 -89.52,4.26 -122.58,12.96 -33,8.64 -59.46,25.38 -79.57,49.74 -20.1,24.31 -36.6,59.05 -49.32,104.35 -13.32,45.06 -24.96,105.18 -35.34,180.12 -8.7,76.38 -14.4,139.08 -16.92,187.74 -2.76,48.67 3.78,83.83 19.26,105.61 15.84,21.84 43.8,32.64 83.82,32.64 62.65,-3.6 121.27,-22.68 176.11,-57.36 54.78,-34.74 110.04,-76.63 165.54,-125.35l88.68 198.37c-24.36,29.64 -56.94,65.58 -97.8,108.12 -40.86,42.78 -88.68,84.48 -143.28,125.34 -54.84,41.04 -114.78,75.36 -178.86,103.08 -64.39,27.97 -133.15,41.71 -206.23,41.71 -102.6,0 -185.16,-25.21 -247.86,-75.61 -62.65,-50.34 -104.35,-128.22 -125.29,-233.46 -20.76,-105.18 -20.76,-239.59 0,-403.03 17.34,-132.24 43.62,-241.08 78.55,-326.17 34.68,-85.32 75.78,-151.98 123.84,-199.62 47.58,-47.82 102.42,-81.06 164.22,-99.24 61.8,-18.18 128.28,-27.3 199.62,-27.3z"/>
  <path class="fil1" d="M8634.89 9541.69l464.41 36.6 -177.36 1255.04 -365.35 0 0 -287.04 -59.94 -39.18 138.24 -965.42zm250.63 -704.42l156.42 331.45 -657.67 266.11 -112.2 -195.85 613.45 -401.71zm-412.33 662.72c45.3,0 97.8,2.52 157.68,7.86 60.3,5.28 120.67,11.82 181.63,19.68 60.72,7.62 116.82,15.84 168.24,24.54 51.24,8.7 90.84,17.34 118.56,26.22l-349.44 245.34c-55.93,-1.92 -108.01,-3.18 -156.67,-4.02 -48.9,-0.84 -100.98,-1.26 -156.66,-1.26 -41.7,0 -78.3,3.78 -109.38,11.64 -31.38,7.8 -58.02,22.62 -79.62,44.46 -21.79,21.61 -40.87,54.37 -57.55,97.81 -16.56,43.56 -29.88,100.74 -40.44,172.26 -13.8,97.38 -22.02,171.66 -24.54,222.91 -2.76,51.42 3.78,85.74 19.44,103.08 15.66,17.58 42.78,26.22 80.64,26.22 40.21,-3.6 82.81,-20.52 128.11,-51 45.24,-30.48 89.1,-70.68 131.64,-121.27 42.72,-50.4 81.48,-106.08 116.22,-167.04l78.3 138.24c-29.64,114.97 -74.94,214.03 -135.9,297.61 -60.72,83.4 -133.56,147.96 -219.06,193.02 -85.09,45.3 -181.63,71.17 -289.57,78.37 -119.82,6.78 -210.42,-16.74 -271.38,-70.51 -60.73,-54 -97.81,-135.24 -110.89,-243.84 -12.96,-108.78 -8.28,-241.51 14.34,-397.93 22.68,-151.56 56.52,-271.14 101.83,-358.99 45.12,-87.84 101.82,-152.4 169.56,-194.34 67.74,-41.7 146.46,-68.58 236.04,-80.82 89.71,-12.12 189.43,-18.24 298.87,-18.24z"/>
  <path class="fil1" d="M9829.7 9500.05c104.52,0 205.92,4.02 304.14,11.64 97.99,7.8 186.49,17.76 264.79,30.06 78.3,12.06 139.26,24.36 182.7,36.6l-349.92 245.1c-55.45,-1.68 -107.95,-2.94 -157.69,-3.78 -49.5,-1.08 -102.84,-1.5 -160.2,-1.5 -52.5,0 -95.04,5.28 -128.1,15.66 -33,10.62 -59.47,27.54 -79.57,51.01 -19.92,23.52 -36.18,56.52 -48.3,99.3 -12.06,42.54 -23.46,95.88 -33.84,160.2 -17.58,97.62 -26.22,172.32 -26.22,224.41 0,52.26 8.64,87.6 26.22,105.84 17.34,18.18 44.22,25.62 80.88,22.02 41.71,-5.1 84.85,-22.44 129.13,-52.08 44.4,-29.64 88.44,-69.24 131.82,-118.75 43.44,-49.56 82.38,-105.66 117.3,-168.3l78.3 135.66c-29.4,113.05 -75.54,210.01 -138.24,290.89 -62.64,80.82 -136.92,143.46 -223.08,187.74 -86.17,44.46 -182.23,68.34 -288.31,71.94 -118.32,5.11 -208.26,-18.84 -269.88,-71.94 -61.81,-52.92 -100.33,-131.88 -114.91,-237.3 -14.82,-105.18 -9.96,-232.63 14.16,-382.09 22.86,-151.5 54.42,-271.14 95.29,-358.99 41.04,-87.84 89.52,-152.4 146.22,-194.28 56.34,-41.7 122.16,-68.58 196.86,-80.88 74.7,-12.24 158.35,-18.18 250.45,-18.18zm289.74 41.7l464.41 36.6 -151.14 1067.06c-21.18,151.32 -55.86,274.75 -104.58,370.39 -48.66,95.7 -109.21,168.72 -181.39,219.3 -72.18,50.4 -152.58,85.08 -241.32,104.35 -88.68,19.08 -182.65,29.46 -281.71,31.32 -31.32,0 -79.8,-1.86 -144.78,-5.28 -65.22,-3.6 -134.4,-10.8 -207.66,-22.2 -72.79,-11.22 -138.01,-29.23 -195.55,-53.35l26.22 -261 84.9 0 104.11 0 157.92 0c123.6,-1.68 229.68,-17.34 318.37,-46.98 88.68,-29.64 151.32,-82.8 187.92,-159.19 26.04,-48.66 43.86,-97.8 53.34,-147.3 9.78,-49.74 26.7,-96.12 50.82,-139.74l-80.82 -31.32 140.94 -962.66z"/>
  <path class="fil1" d="M11166.88 8952.06c50.41,0 87.01,12.3 109.63,36.6 22.68,24.36 31.32,61.86 26.28,112.2l-18.42 138.24c-10.38,87 -62.64,130.38 -156.67,130.38l-187.74 0c-100.98,0 -145.2,-49.56 -132.9,-148.62l18.18 -138.18c8.7,-87.24 59.88,-130.62 153.9,-130.62l187.74 0zm67.75 584.41l-179.95 1296.68 -472.21 0 180.13 -1296.68 472.03 0z"/>
  <path class="fil1" d="M11948.88 9006.84l-198.36 1388.13c-6.72,40.02 -2.28,66.9 13.14,80.88 15.66,13.74 48.72,20.94 99.3,20.94l109.44 0 25.98 315.6c-25.98,12.06 -60.96,22.02 -104.34,29.82 -43.38,7.87 -87,13.99 -130.38,18.43 -43.38,4.26 -79.15,6.6 -106.87,6.6 -133.98,0 -236.22,-32.83 -306.54,-97.81 -70.44,-65.4 -98.82,-154.5 -84.84,-267.54l211.44 -1495.05 472.03 0z"/>
  <path class="fil2" d="M7068.1 6284.88c704.4,-174.57 2783.26,-854.1 2783.26,-854.1 213.2,-65.73 182.39,-374.21 -34.13,-374.21l-5.12 0 -2858.64 201.58c-296.86,40.75 -406.11,64.99 -440.62,620.09 -8.82,143.62 -44.56,446.68 302.01,446.68 91.55,0 166.44,-18.64 253.24,-40.04z"/>
  <path class="fil1" d="M6975.73 3148.8c283.2,-188.7 849.17,-220.93 1124.33,-6.98 330.78,252.82 166.7,1236.31 111.09,1596.33 -8.04,53.64 -16.48,105.55 -24.62,156.39 -3.7,21.21 13.71,39.81 35.04,38.36l1628.86 -114.78c4.78,-36.79 11.24,-73.7 15.84,-111.01 112.61,-911.02 144.21,-2148 -815.26,-2627.21 -681.39,-328.13 -1890.09,-348.49 -2616.71,-131.89 -1236.8,349.19 -1535.86,1664.5 -1700.54,2790.14 -104.1,784.25 -97.12,1395.13 20.95,1839.3 124.9,437.45 367.87,749.74 728.79,937.13 367.75,180.52 867.54,270.65 1492.23,270.65 444.18,0 832.89,-41.65 1159.15,-131.93 724.19,-200.05 1119.69,-668.76 1381.15,-1353.33 64.8,-169.53 122.32,-359.46 173.38,-567.8 -565.23,183.01 -1995.95,641.5 -2564.8,782.49 -103.57,26.86 -202.25,47.44 -309.75,47.44 -474.8,0 -544.57,-311.62 -544.57,-567.02 0,-582.97 190.41,-2518.79 705.44,-2846.28z"/>
 </g>
</svg>
