<?xml version="1.0" encoding="UTF-8"?>
<!DOCTYPE svg PUBLIC "-//W3C//DTD SVG 1.1//EN" "http://www.w3.org/Graphics/SVG/1.1/DTD/svg11.dtd">
<!-- Creator: CorelDRAW 2020 (64 Bit Versão de avaliação) -->
<svg xmlns="http://www.w3.org/2000/svg" xml:space="preserve" width="340mm" height="160mm" version="1.1" style="shape-rendering:geometricPrecision; text-rendering:geometricPrecision; image-rendering:optimizeQuality; fill-rule:evenodd; clip-rule:evenodd"
viewBox="0 0 34000 16000"
 xmlns:xlink="http://www.w3.org/1999/xlink"
 xmlns:xodm="http://www.corel.com/coreldraw/odm/2003">
 <defs>
  <style type="text/css">
   <![CDATA[
    .fil0 {fill:#F9F9F9}
    .fil1 {fill:#0733AD;fill-rule:nonzero}
    .fil2 {fill:#FF1049;fill-rule:nonzero}
   ]]>
  </style>
 </defs>
 <g id="Camada_x0020_1">
  <metadata id="CorelCorpID_0Corel-Layer"/>
  <rect class="fil0" x="-1.07" y="1" width="34000" height="16000"/>
  <g id="_1254617465120">
   <path class="fil1" d="M8377.23 10934.08l-464.94 3309.06 -311.41 0 464.94 -3309.06 311.41 0zm1103.84 0l-38 277.38 -2519.28 0 39.51 -277.38 2517.77 0zm1183.83 -5.48c160.33,0 320.67,0 482.52,0 161.85,0 320.87,2.64 479.88,6.8 157.7,5.49 311.42,12.29 462.3,21.75l-43.49 244.66 -1337.73 0c-118.36,0 -208.17,28.55 -269.24,85.66 -61.27,58.42 -99.27,146.91 -114.21,265.08l-288.15 2085.54c-16.45,108.91 0,191.73 47.45,248.83 47.65,58.42 127.82,86.97 240.7,86.97l1328.28 0 -5.48 244.86c-146.73,9.46 -296.29,16.26 -450.01,18.91 -153.53,4.16 -307.25,6.81 -460.79,8.13 -153.72,1.51 -304.6,2.84 -455.49,2.84 -207.98,0 -360.38,-55.78 -456.81,-165.83 -97.94,-110.23 -134.62,-256.95 -108.72,-439.23l307.25 -2177.99c21.75,-163.18 86.98,-293.64 195.7,-391.58 108.72,-96.43 256.96,-145.4 446.04,-145.4zm-681.26 1434.35l1707.57 0 -34.03 244.66 -1711.54 5.49 38 -250.15zm3141.36 -1428.87l-374 2704.01c-14.94,102.1 0,183.6 46.32,244.86 46.14,61.07 126.31,90.94 242.02,90.94l1237.14 0 -9.64 244.86c-213.28,12.1 -430.91,20.23 -649.86,24.39 -218.77,4.16 -436.39,5.49 -649.68,5.49 -118.36,0 -221.78,-24.58 -310.08,-74.88 -88.3,-50.29 -150.89,-121.01 -188.89,-213.47 -38.2,-92.46 -47.65,-202.5 -28.55,-331.64l369.64 -2694.56 315.58 0zm2742.58 -5.48c160.34,0 320.68,0 482.53,0 161.85,0 320.87,2.64 479.88,6.8 157.69,5.49 311.41,12.29 462.3,21.75l-43.49 244.66 -1337.73 0c-118.36,0 -208.18,28.55 -269.25,85.66 -61.26,58.42 -99.27,146.91 -114.2,265.08l-288.16 2085.54c-16.45,108.91 0,191.73 47.46,248.83 47.65,58.42 127.82,86.97 240.7,86.97l1328.27 0 -5.48 244.86c-146.72,9.46 -296.29,16.26 -450.01,18.91 -153.53,4.16 -307.25,6.81 -460.78,8.13 -153.72,1.51 -304.61,2.84 -455.49,2.84 -207.99,0 -360.38,-55.78 -456.81,-165.83 -97.95,-110.23 -134.63,-256.95 -108.72,-439.23l307.25 -2177.99c21.74,-163.18 86.97,-293.64 195.69,-391.58 108.72,-96.43 256.96,-145.4 446.04,-145.4zm-681.25 1434.35l1707.57 0 -34.04 244.66 -1711.53 5.49 38 -250.15zm3933.21 -1487.3c137.27,0 255.64,2.65 357.55,9.46 100.59,6.8 190.4,17.58 270.57,29.87 80.17,12.29 163.18,31.39 248.83,57.1l-57.1 235.22c-89.81,-12.29 -174.14,-23.07 -254.31,-31.2 -80.17,-8.13 -163.18,-13.61 -251.48,-17.77 -88.49,-2.65 -193.05,-3.98 -314.06,-3.98 -182.27,0 -337.12,24.4 -464.94,72.04 -129.14,47.46 -238.05,126.31 -329,235.22 -91.13,108.72 -167.33,255.44 -225.76,440.36 -58.42,186.24 -106.07,418.81 -141.43,700.16 -50.29,354.9 -62.39,636.25 -35.36,841.59 25.91,206.66 100.59,353.58 224.44,441.87 123.66,88.3 300.45,133.31 530.18,137.28 205.34,0 376.64,-5.49 516.56,-14.94 138.78,-9.46 274.73,-23.07 409.35,-43.49l24.4 235.21c-141.44,35.36 -282.87,61.08 -425.62,77.53 -142.76,14.93 -316.71,23.06 -524.69,23.06 -314.06,0 -556.08,-58.42 -728.71,-175.46 -172.63,-115.53 -284.19,-301.77 -333.16,-555.89 -50.29,-254.31 -46.13,-585.96 12.29,-995.31 44.81,-312.55 104.75,-577.83 179.44,-795.27 74.87,-217.44 169.98,-392.9 285.51,-526.2 115.52,-131.79 256.95,-228.41 424.29,-288.16 167.14,-58.42 368.32,-88.3 602.21,-88.3zm2675.28 -4.16c303.09,0 542.46,55.78 717.74,167.15 174.14,112.88 286.83,295.15 339.96,546.63 52.94,252.79 48.97,591.43 -12.29,1016.86 -42.16,316.9 -99.27,584.63 -173.95,803.58 -74.88,218.77 -169.98,394.23 -285.51,524.7 -115.53,131.97 -256.96,227.08 -426.94,285.5 -169.98,59.94 -369.84,89.82 -599.57,89.82 -303.09,0 -543.79,-55.78 -721.9,-165.82 -178.11,-110.24 -293.64,-292.32 -348.09,-545.31 -54.27,-251.47 -52.95,-592.76 5.48,-1021.02 44.81,-312.55 103.43,-577.83 176.79,-793.94 73.36,-216.12 168.47,-390.07 285.51,-524.7 116.85,-134.62 260.93,-231.24 432.23,-292.31 169.98,-61.26 374,-91.14 610.54,-91.14zm-19.1 282.86c-243.35,0 -440.55,44.82 -591.44,134.44 -152.21,89.81 -271.89,239.37 -357.55,450.01 -86.97,210.82 -156.36,498.98 -206.66,863.33 -50.29,354.9 -61.07,636.25 -32.52,841.59 28.55,206.66 104.56,354.9 229.73,444.52 123.66,89.81 303.09,134.63 536.98,134.63 243.35,0 439.23,-46.14 590.12,-137.28 149.56,-91.13 270.57,-242.02 361.51,-452.65 91.14,-210.82 160.53,-497.65 207.99,-859.36 54.46,-360.2 68.07,-644.38 39.52,-851.04 -28.55,-205.34 -106.07,-352.07 -229.73,-439.04 -125.17,-85.66 -307.25,-129.15 -547.95,-129.15zm5226.32 -220.27c44.81,0 77.52,13.61 100.59,40.84 23.07,27.04 32.52,62.4 28.55,107.4l-307.25 3160.82 -316.9 0 307.25 -3045.3 -100.59 0 -1222.2 2599.46c-16.26,35.35 -35.36,61.07 -57.1,76 -23.07,16.45 -52.94,24.58 -92.46,24.58l-316.71 0c-38,0 -68.07,-10.96 -89.81,-31.38 -23.07,-20.42 -39.33,-48.97 -48.78,-84.33l-508.62 -2584.33 -104.56 0 -551.92 3045.3 -311.42 0 579.15 -3174.44c9.46,-45 27.23,-78.84 51.62,-102.1 23.07,-21.74 55.78,-32.52 97.94,-32.52l368.52 0c35.16,0 63.72,10.78 86.97,31.2 23.07,20.42 35.36,48.97 38.01,83l436.39 2158.9c16.26,77.52 29.87,152.21 40.84,227.08 10.78,74.69 23.07,149.57 36.68,224.25l104.75 0c31.2,-77.52 65.23,-153.53 100.59,-231.05 35.36,-76.2 69.2,-149.56 100.59,-220.28l1022.35 -2168.54c19.1,-38.01 39.33,-63.72 62.58,-78.85 21.75,-14.93 51.62,-21.74 90.95,-21.74l374 -3.97z"/>
   <path class="fil1" d="M11593.46 3785.77c224.81,0 421.65,43.49 591.63,131.41 170.17,88.11 297.61,217.44 382.31,390.26 85.28,172.82 108.72,388.18 69.96,645.71l-427.5 3033.57 -1496.18 0 362.27 -2556.72c21.37,-148.05 13.24,-250.72 -24.77,-308.76 -38.57,-56.73 -121.39,-79.98 -246.74,-69.4 -137.47,0 -288.16,40.66 -452.28,123.47 -164.69,82.06 -361.52,216.12 -592.38,402.74l-221.98 -666.31c296.09,-350.18 626.23,-625.66 990.39,-825.71 364.92,-200.23 719.82,-300.26 1065.27,-300.26zm-1841.63 114.78l24.77 1085.31 131.41 106.64 -402.92 2894.22 -1496.18 0 567.61 -4086.17 1175.31 0z"/>
   <path class="fil1" d="M17657.97 2231.55l-805.67 5755.17 -1184.01 0 -24.77 -1059.97 -139.35 -82.63 386.1 -2795.53 73.55 -131.41c0,-136.7 4.54,-275.48 12.67,-414.83 8.51,-140.11 23.26,-286.84 45.19,-440.37l148.24 -830.43 1488.05 0zm-3009.57 1554.22c416.92,0 809.07,28.74 1175.88,86.04 367.57,57.29 657.81,149.37 871.84,275.48l-164.68 584.26c-218.77,0 -420.33,-1.9 -604.49,-4.54 -183.4,-2.65 -395.36,-4.16 -637,-4.16 -153.35,0 -282.11,13.42 -386.1,40.84 -104,27.23 -188.14,79.98 -250.91,156.74 -63.34,76.58 -115.34,186.06 -155.99,328.81 -41.41,142 -78.09,331.46 -111.37,567.62 -27.41,240.88 -45.38,438.28 -53.32,591.62 -8.13,153.53 12.67,264.15 61.26,332.97 50.11,68.64 137.46,102.67 263.58,102.67 197.4,-11.34 382.13,-70.72 554.95,-180.76 172.62,-109.48 346.77,-241.45 522.23,-394.23l279.46 624.34c-77.33,93.4 -179.44,206.66 -308.77,340.91 -128.76,134.62 -278.89,266.03 -451.71,394.79 -172.62,129.33 -360.76,237.49 -563.64,325.6 -202.69,87.35 -418.81,130.65 -648.92,130.65 -323.51,0 -584.25,-79.41 -781.84,-238.05 -197.39,-158.83 -328.05,-404.25 -394.79,-735.89 -65.42,-331.46 -65.42,-754.99 0,-1269.85 55.4,-416.92 137.46,-759.91 247.5,-1028.02 109.29,-268.69 239.38,-478.94 390.07,-628.88 150.89,-150.88 322.95,-255.63 517.7,-312.92 194.75,-57.3 404.25,-86.04 629.06,-86.04z"/>
   <path class="fil1" d="M20585.28 3916.99l1463.47 115.53 -559.49 3954.77 -1150.73 0 0 -904.55 -189.45 -123.47 436.2 -3042.28zm789.21 -2219.78l492.93 1044.47 -2071.73 838.57 -353.58 -616.97 1932.38 -1266.07zm-1299.34 2088.38c142.75,0 308.19,8.13 497.46,24.76 189.46,16.64 379.67,37.25 571.78,62.02 191.34,24.02 368.13,49.92 530.17,77.34 161.47,27.41 286.83,55.4 374.19,82.81l-1101.95 772.96c-175.28,-6.06 -339.4,-10.03 -493.5,-12.67 -153.34,-2.65 -317.46,-3.97 -492.92,-3.97 -131.41,0 -246.75,12.1 -345.45,36.68 -98.89,24.77 -182.27,71.47 -250.91,140.1 -68.63,68.07 -128.76,171.5 -180.76,308.2 -51.99,137.27 -94.73,318.03 -127.44,542.85 -44.05,306.87 -69.39,540.95 -78.09,702.42 -7.94,162.04 12.1,270.2 61.45,324.84 49.35,55.4 134.82,82.82 254.88,82.82 125.93,-11.35 260.74,-64.86 402.74,-160.91 142.75,-96.05 281.54,-222.73 415.59,-382.13 134.06,-158.82 256.21,-334.1 365.49,-526.2l246.94 436.2c-92.84,361.52 -235.59,673.69 -427.7,937.08 -191.34,262.81 -421.45,466.26 -690.32,608.45 -268.87,142.75 -572.91,224.06 -912.49,246.75 -378.16,21.36 -663.67,-52.75 -855.02,-222.17 -192.1,-169.98 -308.2,-426.18 -349.6,-768.41 -41.41,-342.8 -26.1,-761.05 45.37,-1253.97 71.29,-477.62 177.36,-854.45 320.11,-1131.26 142.76,-276.81 320.87,-480.26 534.34,-612.43 214.04,-131.41 462.3,-216.11 744.4,-254.68 282.86,-38.01 596.36,-57.48 941.24,-57.48z"/>
   <path class="fil1" d="M24350.4 3785.77c329.57,0 648.35,12.67 958.44,36.69 308.95,24.76 587.66,56.15 834.59,94.72 245.99,38.77 438.1,76.77 574.99,115.53l-1101.95 772.39c-174.9,-5.3 -340.91,-9.46 -497.65,-12.1 -156.18,-3.22 -324.27,-4.54 -505.03,-4.54 -164.69,0 -298.75,16.64 -402.74,49.35 -104.75,33.28 -188.13,86.6 -250.91,160.71 -63.34,73.93 -114.01,178.12 -152.02,312.74 -38.76,134.06 -74.11,302.15 -107.39,505.03 -54.65,307.44 -82.06,542.84 -82.06,706.96 0,164.88 27.41,276.25 82.06,333.54 55.4,57.48 140.1,80.73 255.44,69.39 131.41,-16.07 267.55,-70.72 406.9,-164.12 139.35,-93.4 278.13,-218.01 414.84,-374.19 137.46,-155.99 260.17,-332.77 370.21,-530.17l246.75 427.5c-93.21,356.23 -238.62,661.59 -436.2,916.47 -197.4,254.88 -431.48,452.27 -703,592.38 -270.76,139.35 -573.66,214.79 -908.52,226.14 -372.86,15.88 -656.29,-59.37 -850.48,-226.14 -194.75,-167.52 -315.38,-416.35 -362.08,-748.37 -46.7,-331.65 -31.39,-733.06 45.38,-1204.05 71.28,-477.62 170.74,-854.45 300.07,-1131.26 128.76,-276.81 282.1,-480.26 460.21,-612.43 178.12,-131.41 385.53,-216.11 621.13,-254.69 235.4,-38.76 498.22,-57.48 789.02,-57.48zm912.49 131.41l1464.04 115.53 -476.86 3362.39c-65.99,476.85 -176.03,865.79 -328.8,1167.37 -153.35,301.39 -344.13,531.5 -571.59,691.08 -227.46,158.64 -481.01,268.11 -761.23,328.81 -278.7,59.93 -574.99,92.64 -887.72,98.69 -98.7,0 -250.91,-6.05 -456.25,-16.63 -205.53,-11.35 -422.97,-34.04 -653.64,-70.15 -230.11,-35.36 -435.64,-92.08 -616.4,-168.09l82.06 -822.49 267.55 0 328.8 0 496.9 0c389.5,-5.3 723.79,-54.65 1003.82,-148.05 279.46,-93.41 476.29,-260.74 591.63,-500.87 82.06,-154.1 138.21,-308.77 168.84,-464.95 30.07,-156.74 83.39,-302.9 160.15,-440.17l-254.87 -98.7 443.57 -3033.77z"/>
   <path class="fil1" d="M28564.02 2058.92c158.63,0 274.16,38.76 345.44,115.53 71.29,76.57 98.7,194.75 82.06,353.38l-57.29 435.64c-32.71,274.17 -197.58,410.87 -493.68,410.87l-591.63 0c-318.22,0 -457.57,-155.99 -419.56,-468.16l58.04 -435.64c26.66,-274.16 188.7,-411.62 484.8,-411.62l591.82 0zm214.03 1841.63l-567.61 4086.36 -1488.24 0 567.81 -4086.36 1488.04 0z"/>
   <path class="fil1" d="M31028.47 2231.55l-624.91 4374.33c-22.12,126.12 -7.94,210.82 41.41,254.88 49.35,43.3 153.34,65.99 312.17,65.99l345.45 0 82.06 994.55c-82.06,38.01 -192.11,70.15 -328.81,94.73 -136.89,24.77 -274.17,43.3 -410.87,57.48 -137.46,13.23 -250.15,20.61 -336.94,20.61 -422.21,0 -744.97,-102.67 -966.57,-308.2 -221.98,-206.1 -310.84,-486.88 -266.79,-843.1l665.75 -4711.27 1488.05 0z"/>
   <path class="fil1" d="M5247.98 6840.15l-20.61 5.48c-16.07,4.54 -32.71,8.51 -48.78,12.67 -86.6,19.29 -164.69,28.55 -236.72,28.55 -211.39,0 -334.3,-83.95 -400.28,-154.66 -155.99,-166.77 -140.68,-394.23 -132.74,-516.95l1.33 -17.96c2.08,-33.46 4.72,-65.42 7.37,-96.05 3.4,-232.19 32.71,-531.69 92.65,-900.58 34.03,-226.71 68.82,-418.81 102.86,-597.68 48.02,-220.09 89.24,-398.76 137.27,-549.65 89.43,-260.74 199.48,-446.22 350.17,-542.84 144.08,-96.06 336.94,-150.89 577.07,-150.89 240.13,0 412.19,48.03 535.66,144.08 116.66,89.43 178.68,261.49 192.1,508.43 7.38,103.24 7.38,233.32 -6.61,378.16 -13.43,192.1 -34.04,425.61 -75.45,693.73 -7.94,52.56 -16.64,103.99 -24.77,154.66 -3.21,20.8 14,39.33 34.79,37.44l1557.44 -109.47c0,0 41.98,-2.65 54.65,-3.98 1.51,-12.66 4.16,-18.71 5.48,-31.38 96.62,-734.38 82.63,-1304.64 -40.84,-1723.64 0,-6.62 -7.18,-20.61 -7.18,-27.23 -130.09,-432.99 -377.59,-741.76 -748.38,-927.24 -370.97,-178.68 -851.8,-268.11 -1449.47,-268.11 -439.61,0 -817.2,41.4 -1139.96,137.46 -316.14,89.24 -583.68,240.13 -803.77,460.21 -220.09,212.72 -405.01,514.86 -542.28,885.84 -138.22,378.15 -254.12,851.79 -336.94,1415.44 -103.42,775.79 -96.05,1380.65 20.61,1819.69 123.47,432.8 364.36,742.32 721.15,927.05 364.16,178.87 858.42,268.12 1476.7,268.12 439.61,0 824.57,-41.22 1147.33,-130.66 322.19,-88.68 597.68,-240.13 817.2,-453.03 226.7,-213.28 405.57,-508.24 549.65,-885.64 63.91,-168.09 120.63,-356.98 171.3,-563.65 -560.99,181.33 -1973.03,634.36 -2538,774.28z"/>
   <path class="fil2" d="M5128.67 6630.84c20.8,-4.73 42.17,-11.35 63.35,-16.83 697.13,-172.63 2754.3,-844.99 2754.3,-844.99 210.64,-65.42 180.76,-370.22 -34.03,-370.22l-4.73 0 -2828.8 199.48c-294.21,39.9 -402.17,63.91 -436.21,613.56 -8.69,142.19 -44.05,442.26 298.75,442.26 52.75,0 114.77,-7.38 187.37,-23.26z"/>
  </g>
 </g>
</svg>
